<?xml version="1.0" encoding="UTF-8" standalone="no"?>
<!-- Created with Inkscape (http://www.inkscape.org/) -->

<svg
   xmlns:svg="http://www.w3.org/2000/svg"
   xmlns="http://www.w3.org/2000/svg"
   version="1.1"
   width="703.34644"
   height="740.69702"
   id="svg3565">
  <defs
     id="defs3567">
    <marker
       markerUnits="strokeWidth"
       refX="0"
       refY="5"
       markerWidth="4"
       markerHeight="3"
       orient="auto"
       viewBox="0 0 10 10"
       id="ArrowEnd">
      <path
         d="M 0,0 10,5 0,10 z"
         id="path3570" />
    </marker>
    <marker
       markerUnits="strokeWidth"
       refX="10"
       refY="5"
       markerWidth="4"
       markerHeight="3"
       orient="auto"
       viewBox="0 0 10 10"
       id="ArrowStart">
      <path
         d="M 10,0 0,5 10,10 z"
         id="path3573" />
    </marker>
  </defs>
  <g
     transform="translate(-87.879308,-9.0039062e-4)"
     id="g3581">
    <path
       d="m 700.222,146.56 c -3.367,-2.351 -15.161,-9.941 -18.377,-12.461 -10.948,-8.603 -23.911,-21.066 -31.002,-34.8866 -1.676,-3.3746 -5.55,-9.6049 -7.243,-13.8231 -1.524,-2.5254 -2.689,-6.7354 -6.735,-10.1018 -2.54,-1.862 -5.737,-3.8851 -10.798,-4.5567 -5.548,-0.8382 -13.299,0.333 -18.528,4.0434 -2.861,2.3617 -4.723,5.0564 -5.908,8.4282 -1.166,4.21 0,8.9305 1.862,11.4614 1.524,2.1869 5.72,4.8817 9.763,5.5592 -2.35,2.858 -10.44,10.11 -12.452,11.963 -0.677,0.672 -1.185,1.18 -2.031,1.857 1.692,-6.577 -1.188,-11.625 -5.72,-14.9972 -3.047,-2.1951 -6.752,-3.0332 -10.61,-3.7103 -3.216,-0.5078 -5.4,-0.6717 -8.767,-0.5078 l -4.382,0.8463 9.425,-21.2383 C 570.799,59.7772 560.02,47.9772 548.225,37.8754 532.723,24.7321 513.328,15.1273 493.277,8.88596 475.086,3.15253 456.217,1.30414 438.176,1.13217 l -0.339,0 C 419.646,1.30414 400.78,3.15253 382.57,8.88596 362.516,15.1273 343.14,24.7321 327.638,37.8754 315.843,47.9772 305.234,59.7772 297.144,74.4357 l 9.425,21.2383 -4.382,-0.8463 c -3.367,-0.1639 -5.57,0 -8.767,0.5078 -3.705,0.6771 -7.582,1.5152 -10.61,3.7103 -4.551,3.3722 -7.412,8.4202 -5.567,14.9972 -0.999,-0.677 -1.507,-1.185 -2.184,-1.857 -2.012,-1.853 -10.121,-9.105 -12.471,-11.963 4.043,-0.6775 8.258,-3.3723 9.782,-5.5592 2.012,-2.5309 3.028,-7.2514 1.843,-11.4614 -1.166,-3.3718 -3.028,-6.0665 -5.886,-8.4282 -5.062,-3.7104 -12.813,-4.8816 -18.55,-4.0434 -5.061,0.6716 -8.258,2.6947 -10.609,4.5567 -4.213,3.3664 -5.401,7.5764 -6.755,10.1018 -1.843,4.2182 -5.72,10.4485 -7.41,13.8231 -7.074,13.8206 -19.884,26.2836 -31.004,34.8866 -3.028,2.52 -14.991,10.11 -18.358,12.461 -19.715,-3.874 -40.445,8.761 -38.583,29.999 0.15,2.362 0.489,4.21 1.335,6.911 1.693,5.053 4.043,8.089 6.735,11.286 11.306,10.962 34.557,7.754 38.092,-6.405 1.185,-3.538 0.849,-6.233 0.339,-8.933 0.661,1.865 1.187,2.198 2.184,4.723 2.031,4.382 6.413,18.702 6.752,24.935 -3.705,-5.045 -13.657,-4.21 -18.211,-1.51 -8.425,5.395 -8.256,10.949 -7.748,18.705 10.102,-4.385 16.346,6.569 18.868,14.659 6.583,18.876 6.902,42.801 2.859,60.668 0,-0.175 -0.15,1.687 -0.827,3.535 -3.877,-17.358 -24.946,-19.878 -35.387,-12.138 -3.893,2.361 -6.582,6.072 -8.764,10.115 -1.845,3.88 -3.03,8.603 -3.03,13.485 0.658,4.881 1.185,7.243 3.2,10.953 2.52,4.044 5.378,7.241 10.437,10.615 2.542,1.518 4.046,2.529 6.905,4.377 5.908,9.438 20.073,18.707 23.423,33.369 0,0.333 0.526,5.561 0.335,5.728 -7.579,5.733 -8.406,13.148 -5.717,21.577 2.859,7.751 10.779,11.625 18.53,13.143 4.213,10.953 3.894,22.917 1.693,40.273 -1.185,9.941 -3.874,20.897 -5.4,30.999 -1.674,11.8 -3.028,22.928 -2.52,35.73 0.338,11.628 2.689,24.272 5.889,36.405 5.567,19.715 17.023,37.909 32.186,51.219 7.921,7.418 16.196,13.656 30.175,19.72 13.975,4.718 25.789,6.241 38.58,8.933 11.628,2.362 26.639,4.549 37.756,7.757 8.767,2.348 22.235,7.243 32.695,14.32 7.243,4.882 14.148,11.287 18.191,19.879 2.031,4.723 4.893,13.309 6.735,20.228 0.527,2.187 0.866,2.695 1.016,4.385 l 13.487,-1.69 3.031,11.625 9.61,-1.857 c 3.877,11.636 8.767,20.725 17.515,25.282 8.597,-4.557 13.659,-13.646 17.364,-25.282 l 9.613,1.857 3.028,-11.625 13.468,1.69 c 0.338,-1.69 0.508,-2.198 1.015,-4.385 1.865,-6.919 4.724,-15.505 6.924,-20.228 3.858,-8.592 10.779,-14.997 18.022,-19.879 10.441,-7.077 23.928,-11.972 32.695,-14.32 11.286,-3.208 26.109,-5.395 37.925,-7.757 12.622,-2.692 24.436,-4.215 38.412,-8.933 13.978,-6.064 22.237,-12.302 30.174,-19.72 15.144,-13.31 26.619,-31.504 32.167,-51.219 3.219,-12.133 5.739,-24.777 6.078,-36.405 0.338,-12.802 -0.847,-23.93 -2.709,-35.73 -1.504,-10.102 -4.196,-21.058 -5.381,-30.999 -2.031,-17.356 -2.539,-29.32 1.674,-40.273 7.751,-1.518 15.671,-5.392 18.718,-13.143 2.523,-8.429 1.674,-15.844 -5.905,-21.577 -0.17,-0.167 0.338,-5.395 0.507,-5.728 3.367,-14.662 17.343,-23.931 23.251,-33.369 2.858,-1.848 4.551,-2.859 7.093,-4.377 4.871,-3.374 7.729,-6.571 10.271,-10.615 2.012,-3.71 2.52,-6.072 3.197,-10.953 0.169,-4.882 -1.015,-9.605 -3.028,-13.485 -2.015,-4.043 -4.892,-7.754 -8.766,-10.115 -10.441,-7.74 -31.51,-5.22 -35.387,12.138 -0.677,-1.848 -0.846,-3.71 -0.846,-3.535 -4.044,-17.867 -3.705,-41.792 2.861,-60.668 2.539,-8.09 8.933,-19.044 19.054,-14.659 0.492,-7.756 0.492,-13.31 -7.748,-18.705 -4.554,-2.7 -14.675,-3.535 -18.211,1.51 0.339,-6.233 4.721,-20.553 6.736,-24.935 0.846,-2.525 1.354,-2.858 2.201,-4.723 -0.678,2.7 -1.019,5.395 0.169,8.933 3.535,14.159 26.786,17.367 38.073,6.405 2.861,-3.197 5.061,-6.233 6.754,-11.286 0.827,-2.701 1.166,-4.549 1.335,-6.911 1.862,-21.238 -18.696,-33.873 -38.583,-29.999 z"
       id="path3583"
       style="fill:#1f221d;stroke:#000000;stroke-width:0.21602701" />
    <path
       d="m 226.358,377.591 423.15,0 0,-224.626 -423.15,0 0,224.626 z"
       id="path3585"
       style="fill:#00924f;stroke:#000000;stroke-width:0.21602701" />
    <path
       d="m 649.508,430.51 c 0,1.182 0,2.359 0,3.544 0,118.459 -95.058,215.187 -211.501,215.187 -116.613,0 -211.649,-96.728 -211.649,-215.187 0,-1.185 0,-2.362 0,-3.544 l 0,-48.196 423.15,0 0,48.196 z"
       id="path3587"
       style="fill:#db156d;stroke:#000000;stroke-width:0.21602701" />
    <path
       d="m 372.299,276.149 c 0.996,0.339 2.181,0.677 3.197,1.177 0.677,0.339 1.335,0.849 1.862,1.185 l 0.827,0.502 4.723,-0.677 C 432.287,252.05 480.803,225.094 530.015,198.8 l 23.947,-12.464 19.865,-11.12 c 1.692,-0.677 3.216,-1.018 4.892,-0.341 l 6.921,4.718 17.515,-9.772 1.015,-0.338 c 1.843,-0.339 3.028,-0.175 4.554,1.01 l 0.489,0.499 c 1.354,1.862 1.523,3.372 0.677,5.229 l -0.489,0.843 C 535.246,217.343 461.596,257.95 390.828,299.4 l -2.184,4.898 c -0.677,2.02 -1.692,3.197 0.658,3.705 l 0.68,0 0.677,1.349 -3.538,0.838 -2.012,0.338 -0.677,0 c -1.355,-0.166 -2.709,-0.338 -3.367,-1.684 -0.191,-0.339 -0.191,-0.677 -0.191,-1.016 0.191,-0.5 0.191,-1.01 0.191,-1.51 l 0,-1.687 c -0.677,0.164 -1.187,0.164 -1.864,0.164 -0.847,0 -1.693,0 -2.37,0 l -1.674,0.175 c 0.169,1.01 0.508,1.848 0.846,2.697 0.489,1.177 1.016,2.184 1.166,3.369 0,0.502 0,0.836 -0.15,1.349 0,0.33 -0.188,0.838 -0.188,1.177 l -4.532,8.428 0,-36.064 c 1.504,-0.172 3.027,-0.508 4.72,-0.671 0.997,0 2.012,-0.339 3.197,-0.514 l -1.354,-1.848 -0.508,-0.508 -0.508,-0.502 c -0.677,-0.513 -1.354,-0.847 -2.012,-1.185 -1.354,-0.674 -2.351,-1.352 -3.535,-1.685 l 0,-2.864 z m -10.949,9.106 0,0 c 0,-0.175 0.151,-0.339 0.151,-0.339 l 0.338,-1.684 c 1.016,-2.362 1.862,-3.886 3.893,-5.567 l 0.997,-0.675 c 1.185,-0.502 2.2,-0.841 3.366,-1.01 l 1.354,0.169 c 0.342,0 0.511,0 0.85,0 l 0,2.864 c -0.85,-0.163 -1.696,-0.338 -2.523,-0.163 -1.354,0 -2.031,0.496 -3.047,1.348 -0.997,1.01 -1.674,2.023 -2.182,3.372 l -0.169,0.672 c -0.169,1.013 0,1.351 0.677,2.361 0.339,0 0.677,0.161 0.997,0.161 0.846,0 1.693,-0.333 2.539,-0.333 l 1.185,-0.166 c 0.827,0 1.673,-0.175 2.523,-0.339 l 0,36.064 -0.172,0.164 -0.167,0.174 c -0.169,0.164 -0.339,0.164 -0.677,0.333 l -1.016,0 -8.597,-6.066 0.508,-1.013 c 0.677,0.175 1.185,0.341 1.692,0.341 0.339,0.172 0.677,0.172 0.997,0.172 l 1.354,-0.685 c 3.369,-2.362 1.354,-5.895 -2.181,-3.872 l -2.69,1.51 0,-27.793 z m 0,30.155 0,0 0.828,0.172 1.862,-4.044 c -0.847,0.508 -1.862,1.011 -2.69,1.51 l 0,2.362 z m -10.121,-27.796 0,0 -0.507,-0.511 c 0.169,-1.177 0.507,-1.349 1.692,-1.51 l 0.508,0.333 0.658,0.164 0.677,0.341 0.677,0.172 0.677,0.161 c 1.505,0.172 2.69,0.172 4.044,-0.333 0.677,-0.341 1.168,-0.505 1.695,-1.176 l 0,27.793 -2.88,1.524 0.172,0 c -3.2,1.684 -7.074,3.2 -10.105,5.22 -3.385,2.198 -6.751,4.723 -9.951,7.418 -0.847,0.672 -1.674,1.349 -2.52,2.195 -3.724,3.372 -7.074,6.569 -10.967,9.605 -2.013,1.507 -3.855,3.033 -5.887,4.382 -0.677,0.333 -1.354,0.835 -2.015,1.177 -1.523,1.004 -3.216,1.856 -4.72,2.694 -0.677,0.172 -1.354,0.511 -1.862,0.847 l -8.259,4.72 -1.693,0.5 c -2.52,0.51 -4.704,0.671 -7.243,0.338 l -1.335,-0.338 C 280.46,348.273 277.92,335.974 277.748,324.848 l 0,-2.52 c 0,-2.361 0.172,-4.723 0.342,-6.746 l 0.338,-1.01 c 1.016,-2.526 2.709,-3.372 5.229,-4.382 l 24.266,-7.08 c 5.231,-0.835 10.44,-2.694 15.502,-3.871 2.351,-0.511 4.721,-1.182 7.074,-1.687 l 13.149,-2.196 14.994,-3.871 -5.57,-2.695 c -0.338,-0.164 -0.488,-0.164 -0.827,-0.338 -0.338,-0.164 -0.677,-0.503 -1.016,-0.838 z m 10.121,25.434 0,0 c -1.018,0.514 -1.864,1.016 -2.708,1.524 l 2.708,0.838 0,-2.362 z"
       id="path3589"
       style="fill:#1f221d;stroke:#000000;stroke-width:0.21602701" />
    <path
       d="m 552.269,298.39 c -5.906,-1.01 -8.259,-2.859 -14.165,-3.872 l -13.151,-5.056 2.203,-4.382 -0.169,-0.339 0,-0.333 -0.169,-0.166 -0.17,-0.172 -1.168,-0.5 -4.232,3.033 -0.996,-0.513 0,26.958 2.858,1.524 c 4.046,2.187 7.92,4.723 11.795,7.418 10.951,7.753 19.379,15.832 31.173,21.901 11.306,5.393 17.87,13.149 29.664,3.708 7.413,-6.405 6.905,-12.81 7.413,-22.412 L 602.985,323 c -0.338,-6.405 -1.843,-13.31 -9.105,-15.333 -2.351,-0.849 -7.243,-1.523 -9.763,-2.195 -4.044,-1.01 -6.733,-2.362 -10.779,-3.197 -1.693,-0.339 -3.386,-0.677 -5.229,-1.013 -5.231,-1.01 -10.44,-2.023 -15.84,-2.872 z m -32.017,17.02 0,0 0,-2.362 2.858,1.524 -2.858,0.838 z m 0,-29.32 0,0 -1.185,-0.672 c 0,-0.677 0,-1.176 0,-1.687 -0.17,-5.056 -3.708,-7.582 -8.598,-7.582 l -1.335,0.164 c -0.188,0 -0.188,0.175 -0.338,0.175 l 0,2.7 0.15,0 c 0.338,-0.175 0.677,-0.175 1.015,-0.338 3.217,-0.339 5.909,0.671 6.078,4.207 l 0,0.513 c -0.169,0.336 -0.169,0.5 -0.169,0.672 -0.339,0.499 -0.511,0.674 -0.847,1.176 l -0.677,0.175 c -0.83,0.161 -1.507,0 -2.353,0 -1.016,0 -2.182,0 -3.197,-0.175 l 0,35.384 0.677,1.352 0.15,0.174 c 0.188,0.164 0.338,0.164 0.677,0.333 l 1.016,0 8.597,-6.066 -0.508,-1.013 c -2.181,0.674 -3.028,0.513 -4.892,-0.846 -0.997,-1.174 -1.185,-1.849 -0.32,-3.198 1.507,-0.835 1.846,-0.835 3.369,0 l 2.69,1.51 0,-26.958 z m 0,26.958 0,0 0,2.362 -0.847,0.172 -1.843,-4.044 2.69,1.51 z m -11.456,-36.56 0,0 c -0.847,0.164 -1.693,0.502 -2.539,0.838 -0.678,0.339 -1.355,0.849 -2.015,1.185 l -0.677,0.502 -5.06,-1.687 C 449.124,251.203 400.78,225.094 351.568,198.8 l -23.93,-12.464 -21.408,-12.471 c -5.228,-1.349 -6.902,1.848 -10.948,4.543 l -16.854,-8.587 -0.849,-0.338 c -3.705,-0.672 -6.563,1.509 -6.394,5.22 l 0.169,0.846 0.339,0.672 0.489,0.843 218.234,122.175 2.539,5.059 0.999,2.353 c 0.186,1.177 -0.999,1.516 -2.353,1.352 l -0.508,1.349 3.366,0.838 c 1.188,0.172 2.204,0.338 3.369,0.338 1.524,-0.338 3.028,-0.838 2.878,-2.7 l -0.188,-1.51 0,-1.687 c 0.677,0.164 1.354,0.164 1.862,0.164 0.846,0 1.695,0 2.522,0 l 1.693,0.175 c -0.338,0.835 -0.508,1.681 -0.846,2.525 -0.17,0.333 -0.32,0.672 -0.508,1.185 -0.339,0.672 -0.661,1.51 -0.83,2.356 0,0.502 0,0.836 0.169,1.349 0,0.33 0.172,0.838 0.322,1.177 l 3.894,7.24 0,-35.384 c -1.524,0 -3.047,-0.163 -4.554,-0.163 l -2.709,-0.514 1.185,-1.848 0.508,-0.508 0.677,-0.502 c 0.508,-0.339 1.185,-0.847 1.846,-1.185 1.015,-0.5 1.862,-1.177 3.047,-1.51 l 0,-2.7 z"
       id="path3591"
       style="fill:#1f221d;stroke:#000000;stroke-width:0.21602701" />
    <path
       d="m 381.065,293.508 c -3.219,-5.559 -11.139,-4.382 -14.336,-2.525 -2.351,1.004 -3.874,3.71 -6.397,4.035 -17.361,3.372 -34.556,6.744 -54.271,13.323 -0.677,0.164 -1.335,2.526 -1.335,2.526 l -0.339,4.89 52.579,-16.69 c 2.012,-0.505 4.043,-0.841 5.381,-0.164 1.693,0.164 1.354,3.869 2.2,5.395 0.658,1.174 0.847,2.02 1.505,3.03 1.354,1.849 3.538,3.2 3.874,5.387 0.341,1.857 -1.335,3.705 -1.843,5.392 l 2.861,2.023 3.367,-5.897 c 0.677,-1.01 -1.016,-2.361 -1.524,-3.366 -0.66,-1.854 -1.338,-3.711 -2.35,-5.395 -1,-1.687 -2.692,-2.864 -3.37,-4.549 -0.677,-1.684 -1.673,-3.705 -1.015,-5.392 0.508,-1.187 2.539,-1.51 3.874,-1.351 1.357,0 2.711,0.838 3.369,1.854 1.016,1.518 0.846,3.033 1.354,4.717 0.17,1.011 0.847,1.524 2.37,1.185 l 6.228,-1.52 c 0.508,-0.339 0.508,-1.177 0.338,-1.688 l -2.52,-5.22 z"
       id="path3593"
       style="fill:#f6c10b;stroke:#000000;stroke-width:0.21602701" />
    <path
       d="m 362.178,305.805 c -0.17,-1.01 0,-1.848 0,-2.695 -0.17,-1.01 0.677,-2.359 -0.17,-2.858 -2.184,-1.013 -3.707,0.333 -5.889,1.171 -2.37,1.185 -5.062,2.195 -8.259,2.875 -4.551,0.672 -8.597,2.02 -12.81,3.869 0,0 -12.133,4.218 -12.81,4.548 -0.658,0.172 -8.767,3.705 -8.767,3.705 l -7.581,2.023 c -3.198,1.01 -4.044,2.023 -2.52,5.395 l 1.354,3.205 0.319,5.395 c 1.354,1.849 3.197,2.012 4.723,0.672 3.386,-1.857 6.902,-3.367 10.121,-5.228 7.749,-5.221 14.146,-8.762 21.408,-14.659 0.658,-0.508 1.504,-0.674 2.351,-0.838 0.846,-0.175 1.843,0 2.689,-0.339 0.338,-0.174 0.677,-0.671 1.016,-1.01 2.522,-1.346 5.381,-2.356 8.089,-3.541 0.847,-0.505 1.862,-0.844 2.689,-1.177 0.511,-0.174 1.188,-0.671 1.693,-0.513 0.341,0.339 0.508,1.185 0.172,1.351 -3.707,2.534 -8.939,3.711 -13.151,6.067 -1.016,0.677 -2.032,1.513 -3.028,2.359 -7.093,2.695 -18.191,13.823 -24.1,15.846 -2.52,0.835 -4.212,2.187 -6.751,3.197 -1.166,0.339 -2.52,0.164 -3.367,1.177 -2.015,2.361 3.216,2.02 3.705,2.02 2.201,-1.174 2.708,-0.835 4.723,0.341 l 2.201,-0.166 c 0.827,-1.01 1.843,-2.023 2.858,-3.033 1.355,-1.349 2.859,-2.187 4.213,-3.536 6.228,-3.208 13.152,-10.285 18.041,-13.484 3.708,-2.362 4.535,-3.711 10.779,-5.395 1.335,-0.503 2.859,-0.677 4.213,-1.349 2.523,-0.838 3.2,-2.356 2.523,-3.533 -0.339,-0.511 -0.677,-1.185 -0.677,-1.862 z"
       id="path3595"
       style="fill:#f6c10b;stroke:#000000;stroke-width:0.21602701" />
    <path
       d="m 315.674,340.359 c -1.862,-1.013 -4.721,0 -6.733,-0.678 -1.185,-0.335 -2.034,-1.351 -3.049,-1.859 -0.508,-0.336 -1.505,-0.336 -1.843,-0.835 -0.677,-0.847 -0.677,-3.372 -1.524,-4.724 -0.677,-1.01 -1.862,-1.681 -2.351,-2.858 -0.846,-1.685 -0.507,-5.395 -0.846,-7.415 -0.169,-1.013 -0.68,-2.023 -0.846,-3.036 0,-0.677 0.508,-1.182 0.677,-1.682 1.693,-1.862 1.843,-2.362 2.031,-4.723 0.15,-1.174 0.827,-2.359 0.489,-3.372 -0.339,-1.349 -4.721,1.185 -4.874,2.198 -0.507,1.174 -0.677,2.012 -0.846,3.361 -0.169,1.684 -0.508,3.371 -0.677,5.056 0,1.185 0.338,2.362 0.169,3.546 0,0.839 -0.508,1.51 -0.508,2.362 -0.338,5.22 1.355,4.202 3.369,8.425 0.678,1.513 1.185,3.195 1.862,4.71 2.351,2.867 4.044,2.867 6.225,3.033 0.508,0 1.185,0 1.693,0.339 0.677,0.333 0.677,1.343 1.338,1.518 2.539,0.502 4.043,0.166 6.582,-2.023 0.17,-0.508 0,-1.185 -0.338,-1.343 z"
       id="path3597"
       style="fill:#f6c10b;stroke:#000000;stroke-width:0.21602701" />
    <path
       d="m 284.672,324.177 c 1.335,-0.167 2.692,-0.339 4.046,-0.675 1.674,-0.502 2.69,-0.338 3.028,-2.187 0.339,-0.849 0.489,-1.862 0.677,-2.697 0.151,-1.188 0.151,-2.198 0.339,-3.208 0.15,-0.674 0.827,-1.177 0.996,-1.848 0,-0.175 0,-0.514 -0.169,-0.675 0,-0.172 -0.169,-0.338 -0.169,-0.338 -0.32,-0.339 -0.658,-0.503 -0.997,-0.503 -2.858,0.339 -5.569,0.841 -8.428,1.516 -0.169,0 -0.338,0.172 -0.677,0.338 -0.677,0.672 -0.846,1.857 -1.016,2.695 -0.169,2.023 -0.338,3.871 -0.338,5.733 0,2.187 1.016,2.021 2.708,1.849 z"
       id="path3599"
       style="fill:#f6c10b;stroke:#000000;stroke-width:0.21602701" />
    <path
       d="m 296.298,337.997 c -0.339,-1.01 -0.678,-2.023 -1.185,-2.872 -0.508,-0.838 -1.355,-1.51 -2.013,-2.348 -1.523,-2.195 -1.862,-3.034 -1.862,-5.567 0,-3.708 -4.384,-0.339 -6.246,0.338 -2.012,0.672 -3.028,1.18 -2.859,3.88 0,1.349 0.169,2.859 0.677,4.374 0.17,0.508 1.016,0.508 1.185,1.018 0.508,0.838 0.677,1.849 1.185,2.687 0.339,0.852 0.658,1.862 1.507,2.361 0.677,0.514 2.351,0 3.197,-0.166 1.524,-0.508 6.733,-1.857 6.414,-3.705 z"
       id="path3601"
       style="fill:#f6c10b;stroke:#000000;stroke-width:0.21602701" />
    <path
       d="m 303.033,343.725 c -0.508,0 -3.197,-1.518 -3.197,-1.518 -4.385,-1.013 -5.908,0.672 -10.121,2.695 -0.491,0.172 -1.169,0.338 -1.504,1.01 -0.17,0.338 0.335,0.677 0.507,0.846 0.658,0.677 1.336,1.515 2.182,1.854 1.016,0.333 4.551,0.672 5.717,0.672 1.018,-0.164 5.739,-1.174 6.755,-1.51 2.689,-1.016 3.197,-3.372 -0.339,-4.049 z"
       id="path3603"
       style="fill:#f6c10b;stroke:#000000;stroke-width:0.21602701" />
    <path
       d="m 392.013,285.754 -1.354,-1.013 0.169,-1.01 35.384,-19.881 -5.889,-3.034 -19.543,11.29 -16.01,8.764 c -2.031,1.351 -2.539,4.046 -1.354,5.733 2.859,2.859 5.228,4.882 6.225,9.431 l 10.29,-6.236 26.958,-15.167 9.444,-5.048 -7.413,-3.71 -36.907,19.881 z"
       id="path3605"
       style="fill:#f6c10b;stroke:#000000;stroke-width:0.21602701" />
    <path
       d="m 453.509,248.858 -3.519,-3.372 -1.355,0.159 -4.382,2.875 5.059,2.858 4.197,-2.52 z"
       id="path3607"
       style="fill:#f6c10b;stroke:#000000;stroke-width:0.21602701" />
    <path
       d="m 455.709,251.04 c -0.677,0.338 -2.689,1.687 -3.366,2.028 l 5.548,3.705 2.031,-1.523 c -2.031,-2.182 -2.689,-3.697 -4.213,-4.21 z"
       id="path3609"
       style="fill:#f6c10b;stroke:#000000;stroke-width:0.21602701" />
    <path
       d="m 463.119,254.411 4.554,-2.186 c -1.354,-5.054 -5.4,-10.11 -10.61,-11.459 l -5.231,2.697 c 5.889,2.356 8.429,5.728 11.287,10.948 z"
       id="path3611"
       style="fill:#f6c10b;stroke:#000000;stroke-width:0.21602701" />
    <path
       d="m 465.811,242.278 2.031,-0.502 c 3.197,-2.198 6.247,-4.718 9.764,-6.58 2.708,-1.51 5.736,-2.023 8.597,-3.533 1.016,-0.502 1.524,-1.687 2.539,-2.187 1.016,-0.685 2.52,-0.51 3.705,-1.185 l 2.692,-1.684 -0.999,-1.687 c -1.016,-0.497 -2.031,-1.685 -3.047,-1.51 -2.351,0.499 -4.382,2.361 -6.397,3.369 -1.354,0.677 -2.708,1.174 -3.893,1.851 -1.674,0.846 -3.197,1.859 -4.702,2.861 -1.357,1.01 -2.689,2.021 -4.046,2.867 l -5.228,2.525 c 0,0 -5.551,2.537 -5.551,2.362 l 2.692,1.685 1.843,1.348 z"
       id="path3613"
       style="fill:#f6c10b;stroke:#000000;stroke-width:0.21602701" />
    <path
       d="m 498.167,228.63 c -0.508,-0.164 -1.016,-0.164 -1.504,0.161 -3.877,2.534 -6.416,4.557 -11.476,6.744 -1.676,0.846 -3.199,1.684 -4.873,2.7 -1.185,0.672 -2.201,1.684 -3.366,2.356 -2.539,1.524 -5.231,2.195 -7.582,3.547 -0.508,0.163 -1.354,0.671 -1.354,1.348 0,0.836 0.846,1.344 1.354,2.023 0.338,0.672 0.489,1.349 0.996,2.021 0.17,0.166 0.339,0.33 0.677,0.33 0.339,-0.164 0.508,-0.505 0.847,-0.669 1.862,-1.01 3.707,-2.195 5.72,-3.372 2.369,-1.518 7.77,-3.541 9.782,-5.394 0.339,-0.334 0.339,-0.847 0.677,-1.18 2.182,-1.515 5.889,-3.033 8.259,-4.049 1.185,-0.499 2.181,-0.671 3.197,-1.346 0.339,-0.164 0.677,-0.502 0.508,-1.01 0,-0.677 -0.508,-1.515 -0.847,-2.187 -0.338,-0.677 -0.507,-1.523 -1.015,-2.023 z"
       id="path3615"
       style="fill:#f6c10b;stroke:#000000;stroke-width:0.21602701" />
    <path
       d="m 496.155,221.886 c 3.874,2.023 3.535,2.537 5.548,6.405 0.338,0.5 1.184,4.047 2.031,3.872 1.018,0 1.695,-1.171 2.523,-1.674 0.677,-0.349 1.354,-0.682 2.031,-1.013 0.996,-0.51 0.508,-0.51 0,-1.185 -0.339,-0.496 -0.677,-1.01 -0.847,-1.512 -2.012,-3.708 -3.366,-6.741 -7.581,-8.428 -0.339,-0.17 -0.847,0.164 -1.185,0.338 -1.166,0.503 -2.351,0.838 -3.367,1.516 -0.507,0.169 -1.168,0.671 -1.018,1.01 0.341,0.671 1.188,0.508 1.865,0.671 z"
       id="path3617"
       style="fill:#f6c10b;stroke:#000000;stroke-width:0.21602701" />
    <path
       d="m 536.6,207.566 -1.526,0 -3.197,2.023 -5.059,2.859 -5.381,2.7 -5.567,3.367 -4.893,2.361 -1.693,1.185 0.677,1.349 1.016,2.361 1.185,1.172 0.677,0.338 3.369,-2.023 c 0,0 4.044,-2.187 4.89,-3.033 0.827,-0.838 7.243,-4.044 7.243,-4.044 l 9.952,-4.723 0.319,-1.682 -0.846,-1.69 -1.166,-2.52 z"
       id="path3619"
       style="fill:#f6c10b;stroke:#000000;stroke-width:0.21602701" />
    <path
       d="m 505.579,218.689 2.878,1.516 4.213,-2.526 6.735,-3.88 5.548,-3.713 7.093,-3.53 1.335,-1.177 -1.335,-2.023 -3.197,-0.846 -2.37,1.179 -6.566,3.364 -6.585,3.721 -8.576,4.374 -2.203,1.343 0.508,0.852 2.522,1.346 z"
       id="path3621"
       style="fill:#f6c10b;stroke:#000000;stroke-width:0.21602701" />
    <path
       d="m 537.954,203.018 2.52,3.871 2.69,2.873 c 0.169,-0.173 1.015,0.838 1.015,0.838 l 2.692,-2.023 1.185,-1.524 -0.677,-2.012 -3.708,-3.705 -3.705,-3.039 -2.012,-0.846 -5.4,3.036 -0.339,0.849 2.69,0.835 3.049,0.847 z"
       id="path3623"
       style="fill:#f6c10b;stroke:#000000;stroke-width:0.21602701" />
    <path
       d="m 546.533,198.8 2.708,0 4.194,-3.034 10.29,-5.394 6.058,-3.198 2.031,-2.023 -0.507,-0.671 -0.847,-0.838 -1.843,-1.862 -1.526,-0.164 -1.843,1.515 -21.069,11.123 -2.877,1.851 -0.32,0.846 1.843,0.839 3.708,1.01 z"
       id="path3625"
       style="fill:#f6c10b;stroke:#000000;stroke-width:0.21602701" />
    <path
       d="m 573.488,188.013 c -0.827,-0.167 -1.504,0 -1.504,0"
       id="path3627"
       style="fill:none;stroke:#1f221d;stroke-width:1.00018799" />
    <path
       d="m 571.984,188.013 -1.354,1.523 -4.552,2.859"
       id="path3629"
       style="fill:none;stroke:#1f221d;stroke-width:1.00018799" />
    <path
       d="m 566.078,192.395 c 0,0 -3.707,0.846 -4.365,1.013 -0.697,0 -3.555,2.195 -3.555,2.195"
       id="path3631"
       style="fill:none;stroke:#1f221d;stroke-width:1.00018799" />
    <path
       d="m 558.158,195.603 -4.723,2.694 -3.855,2.362 -1.355,0.677 0.658,1.166"
       id="path3633"
       style="fill:none;stroke:#1f221d;stroke-width:1.00018799" />
    <path
       d="m 548.883,202.502 c 0.074,0.267 0.697,2.2 0.697,2.2"
       id="path3635"
       style="fill:none;stroke:#1f221d;stroke-width:1.00018799" />
    <path
       d="m 549.58,204.702 1.335,0.339 2.52,-1.185"
       id="path3637"
       style="fill:none;stroke:#1f221d;stroke-width:1.00018799" />
    <path
       d="m 553.435,203.856 c 0,0 5.908,-1.685 6.585,-1.685 0.658,-0.163 5.381,-4.72 5.381,-4.72 0,0 5.736,-2.861 6.413,-3.197 0.508,-0.169 4.721,-2.695 4.721,-2.695"
       id="path3639"
       style="fill:none;stroke:#1f221d;stroke-width:1.00018799" />
    <path
       d="M 576.535,191.559 575.689,189.7"
       id="path3641"
       style="fill:none;stroke:#1f221d;stroke-width:1.00018799" />
    <path
       d="m 575.689,189.7 c 0,0 -1.185,-1.515 -2.201,-1.687"
       id="path3643"
       style="fill:none;stroke:#1f221d;stroke-width:1.00018799" />
    <path
       d="m 603.832,171.844 c -1.335,0.497 -16.349,8.251 -16.349,8.762 1.526,1.348 3.2,2.697 3.2,4.207 4.72,-3.033 9.613,-5.054 13.826,-7.577 0.996,-1.015 2.35,-1.687 3.03,-2.697 2.351,-1.351 -1.695,-3.708 -3.707,-2.695 z"
       id="path3645"
       style="fill:#f6c10b;stroke:#000000;stroke-width:0.21602701" />
    <path
       d="m 574.673,183.642 2.37,2.861 2.184,2.52 c 0,-0.161 0.846,0.677 0.846,0.677 l 1.505,-0.838 2.539,-1.185 1.523,-1.341 -0.527,-1.348 c 0,0 -2.181,-2.695 -3.028,-3.034 -0.827,-0.513 -3.704,-3.372 -3.704,-3.372 -1.505,-2.023 -7.582,-0.333 -7.751,1.513 -0.17,0.341 -0.17,0.674 -0.17,0.849 l 1.862,1.01 2.351,1.688 z"
       id="path3647"
       style="fill:#f6c10b;stroke:#000000;stroke-width:0.21602701" />
    <path
       d="m 519.236,297.89 c 1.335,-0.672 3.536,-0.338 5.567,0.167 l 52.581,16.679 -0.508,-4.885 c 0,0 -0.68,-2.356 -1.357,-2.523 -19.712,-6.577 -36.907,-9.948 -54.271,-13.307 -2.52,-0.338 -3.874,-3.038 -6.225,-4.051 -3.2,-1.857 -12.305,-3.705 -15.502,1.854 l -2.708,5.22 c -0.15,0.508 -0.15,1.346 0.527,1.684 l 7.412,2.195 c 1.335,0.339 2.182,-0.172 2.351,-1.185 0.338,-1.681 0.338,-3.197 1.185,-4.72 0.658,-0.997 2.181,-1.848 3.366,-1.848 1.354,-0.175 3.369,0.172 3.877,1.348 0.677,1.685 -0.172,3.708 -1.018,5.395 -0.658,1.685 -2.351,2.859 -3.367,4.549 -1.015,1.682 -1.523,3.541 -2.35,5.389 -0.508,1.016 -2.032,2.359 -1.524,3.372 l 3.366,5.897 3.031,-2.023 c -0.661,-1.687 -2.353,-3.535 -2.015,-5.384 0.508,-2.198 2.539,-3.546 3.877,-5.395 0.846,-1.01 0.846,-1.856 1.524,-3.033 0.827,-1.523 0.507,-5.228 2.181,-5.395 z"
       id="path3649"
       style="fill:#f6c10b;stroke:#000000;stroke-width:0.21602701" />
    <path
       d="m 568.617,333.615 c -20.899,-11.8 -34.389,-21.405 -46.861,-27.297 -0.319,-0.338 -0.319,-1.185 0.169,-1.523 0.339,-0.164 1.016,0.338 1.524,0.513 1.018,0.339 1.845,0.672 2.692,1.174 15.857,7.926 30.002,18.2 45.843,25.618 0.338,0.502 0.846,0.841 1.504,0.841 4.232,-3.039 6.755,-14.498 2.37,-15.511 l -7.749,-2.02 c 0,0 -7.92,-3.538 -8.766,-3.697 -8.09,-2.869 -17.007,-7.251 -25.623,-8.428 -3.028,-0.677 -5.717,-1.687 -8.24,-2.869 -2.201,-0.841 -3.724,-2.19 -5.736,-1.177 -0.847,0.499 -0.17,1.848 -0.17,2.861 0,0.846 0.17,1.685 0,2.695 -0.169,0.677 -0.507,1.349 -0.846,1.856 -0.677,1.177 0,2.701 2.52,3.539 17.872,10.276 27.805,18.369 40.276,26.797 2.37,0.671 3.724,1.51 9.613,-2.198 -0.846,-0.836 -1.354,-0.836 -2.52,-1.174 z"
       id="path3651"
       style="fill:#f6c10b;stroke:#000000;stroke-width:0.21602701" />
    <path
       d="m 584.963,310.362 c -0.338,-1.01 -4.72,-3.544 -5.059,-2.195 0.677,8.766 4.213,27.635 -13.995,31.179 -0.322,0.161 -0.508,0.838 -0.322,1.346 2.522,2.187 4.196,2.525 6.566,2.023 13.637,-5.057 16.856,-19.715 12.81,-32.353 z"
       id="path3653"
       style="fill:#f6c10b;stroke:#000000;stroke-width:0.21602701" />
    <path
       d="m 598.265,312.887 c -0.153,-0.172 -0.489,-0.172 -0.68,-0.338 -2.689,-0.677 -5.548,-1.174 -8.426,-1.513 -0.322,0 -0.658,0.164 -0.827,0.502 -0.172,0 -0.338,0.175 -0.338,0.334 0,0.174 0,0.513 0,0.677 0.166,0.674 0.677,1.185 0.843,1.859 0.322,1.002 0.172,2.012 0.322,3.197 0.189,0.838 0.339,1.848 0.678,2.695 0.338,1.854 1.523,1.69 3.216,2.192 1.166,0.333 2.52,0.508 3.874,0.672 1.676,0.174 2.861,0.338 2.861,-1.849 0,-1.862 -0.338,-3.71 -0.508,-5.558 -0.169,-1.021 -0.169,-2.195 -1.015,-2.87 z"
       id="path3655"
       style="fill:#f6c10b;stroke:#000000;stroke-width:0.21602701" />
    <path
       d="m 596.758,326.535 c -2.032,-0.677 -6.414,-4.043 -6.414,-0.338 0,2.531 -0.169,3.372 -1.843,5.728 -0.507,0.677 -1.354,1.351 -1.864,2.2 -0.677,0.839 -0.997,1.849 -1.185,2.862 -0.489,1.848 4.892,3.197 6.416,3.705 0.846,0.163 2.52,0.677 3.197,0.163 0.677,-0.496 1.016,-1.509 1.523,-2.358 0.339,-0.839 0.511,-1.849 0.997,-2.695 0.341,-0.505 1.018,-0.505 1.188,-1.013 0.507,-1.513 0.677,-3.022 0.846,-4.371 0,-2.698 -1.016,-3.208 -2.861,-3.883 z"
       id="path3657"
       style="fill:#f6c10b;stroke:#000000;stroke-width:0.21602701" />
    <path
       d="m 591.868,343.891 c -4.213,-2.023 -5.739,-3.707 -10.102,-2.697 0,0 -2.708,1.521 -3.216,1.521 -3.539,0.677 -2.861,3.036 -0.169,4.043 0.846,0.339 5.567,1.352 6.582,1.515 1.166,0 4.874,-0.338 5.72,-0.674 0.846,-0.336 1.523,-1.01 2.2,-1.848 0.17,-0.178 0.659,-0.511 0.508,-0.849 -0.338,-0.675 -1.015,-0.839 -1.523,-1.011 z"
       id="path3659"
       style="fill:#f6c10b;stroke:#000000;stroke-width:0.21602701" />
    <path
       d="m 499.521,287.278 c 1.185,-1.685 -0.677,-5.057 -2.708,-6.408 l -65.203,-35.897 -5.567,4.218 64.881,34.54 0.169,1.01 -1.524,1.013 -65.369,-34.886 -3.877,5.059 61.326,33.871 11.306,6.907 c 1.185,-4.548 3.708,-6.569 6.566,-9.427 z"
       id="path3661"
       style="fill:#f6c10b;stroke:#000000;stroke-width:0.21602701" />
    <path
       d="m 413.929,252.225 4.701,2.186 c 2.692,-5.22 5.231,-8.592 11.118,-10.948 l -5.21,-2.697 c -5.061,1.349 -9.105,6.405 -10.609,11.459 z"
       id="path3663"
       style="fill:#f6c10b;stroke:#000000;stroke-width:0.21602701" />
    <path
       d="m 385.109,226.443 c 8.239,4.549 22.742,11.628 30.663,15.835 l 1.843,-1.348 3.216,-1.849 c -5.229,-2.536 -28.329,-15 -30.513,-16.182 -1.674,-0.336 -4.871,1.349 -5.209,3.544 z"
       id="path3665"
       style="fill:#f6c10b;stroke:#000000;stroke-width:0.21602701" />
    <path
       d="m 381.554,233.85 c 4.551,2.531 24.943,13.998 29.156,16.01 0.172,0 0.341,-0.164 0.508,-0.33 0.51,-0.672 0.68,-1.349 0.999,-2.021 0.524,-0.679 1.373,-1.187 1.373,-2.023 0,-1.523 -26.3,-15.346 -29.158,-17.195 -3.708,1.185 -3.217,5.395 -2.878,5.559 z"
       id="path3667"
       style="fill:#f6c10b;stroke:#000000;stroke-width:0.21602701" />
    <path
       d="m 371.96,229.304 c 3.536,1.688 4.871,3.034 5.886,3.034 1.524,-6.567 6.416,-10.113 9.444,-11.123 0.169,-0.339 -0.508,-0.841 -1.015,-1.01 -0.489,-0.342 -3.875,-2.024 -4.552,-1.854 -4.554,1.512 -8.24,7.579 -9.763,10.953 z"
       id="path3669"
       style="fill:#f6c10b;stroke:#000000;stroke-width:0.21602701" />
    <path
       d="m 345.998,207.053 c -2.52,0.175 -3.705,3.547 -3.197,5.734 7.751,3.704 15.33,8.089 22.743,12.471 l 3.893,2.537 c 0.489,-2.198 1.335,-3.886 3.031,-5.734 l -1.696,-1.185 c -8.087,-3.705 -17.192,-9.1 -24.774,-13.823 z"
       id="path3671"
       style="fill:#f6c10b;stroke:#000000;stroke-width:0.21602701" />
    <path
       d="m 349.048,206.215 c 8.256,4.046 17.004,9.441 24.924,13.99 1.016,-1.516 2.859,-2.701 5.059,-3.714 l -2.2,-1.343 c -8.071,-4.041 -17.007,-9.097 -25.094,-13.315 -2.539,0.338 -5.739,1.856 -2.689,4.382 z"
       id="path3673"
       style="fill:#f6c10b;stroke:#000000;stroke-width:0.21602701" />
    <path
       d="m 333.696,207.741 1.185,0.836 4.382,2.023 c 1.695,-6.744 6.905,-9.777 9.935,-10.277 l -5.55,-2.872 c -4.216,1.349 -8.936,6.58 -9.952,10.29 z"
       id="path3675"
       style="fill:#f6c10b;stroke:#000000;stroke-width:0.21602701" />
    <path
       d="m 335.219,198.8 3.536,-1.01 1.865,-0.839 -0.339,-0.846 -2.88,-1.851 -21.05,-11.123 -2.539,-1.351 c -2.182,1.184 -3.366,2.023 -3.874,4.384 6.244,2.859 18.887,8.925 25.281,12.636 z"
       id="path3677"
       style="fill:#f6c10b;stroke:#000000;stroke-width:0.21602701" />
    <path
       d="m 305.892,189.7 -0.847,1.859"
       id="path3679"
       style="fill:none;stroke:#1f221d;stroke-width:1.00018799" />
    <path
       d="m 305.045,191.559 c -0.15,0.336 23.947,12.636 25.623,13.482"
       id="path3681"
       style="fill:none;stroke:#1f221d;stroke-width:1.00018799" />
    <path
       d="m 330.668,205.041 1.354,-0.339"
       id="path3683"
       style="fill:none;stroke:#1f221d;stroke-width:1.00018799" />
    <path
       d="m 332.022,204.702 c 0,0 0.601,-1.933 0.677,-2.214"
       id="path3685"
       style="fill:none;stroke:#1f221d;stroke-width:1.00018799" />
    <path
       d="m 332.699,202.488 0.658,-1.152 -1.335,-0.677"
       id="path3687"
       style="fill:none;stroke:#1f221d;stroke-width:1.00018799" />
    <path
       d="m 332.022,200.659 c -2.877,-1.685 -22.254,-12.982 -23.93,-12.646 -1.016,0.172 -2.2,1.687 -2.2,1.687"
       id="path3689"
       style="fill:none;stroke:#1f221d;stroke-width:1.00018799" />
    <path
       d="m 294.266,180.606 c 0,-0.511 -15.668,-8.598 -17.173,-9.103 -2.372,-1.185 -4.911,3.2 -3.049,4.046 l 3.049,1.687 c 4.194,2.523 9.084,4.544 13.976,7.577 -0.169,-1.51 1.505,-2.859 3.197,-4.207 z"
       id="path3691"
       style="fill:#f6c10b;stroke:#000000;stroke-width:0.21602701" />
    <path
       d="m 311.123,180.095 c -0.17,-0.835 -5.739,-3.197 -6.228,-3.197 -3.366,0.5 -7.093,4.385 -8.936,7.418 l -0.846,2.187 6.735,3.869 c 1.354,-4.208 6.394,-8.756 9.275,-10.277 z"
       id="path3693"
       style="fill:#f6c10b;stroke:#000000;stroke-width:0.21602701" />
    <path
       d="m 367.406,297.715 c 0,1.188 0.846,2.198 2.031,2.198 1.166,0 2.184,-1.01 2.184,-2.198 0,-1.174 -1.018,-2.184 -2.184,-2.184 -1.185,0 -2.031,1.01 -2.031,2.184 z"
       id="path3695"
       style="fill:#f6c10b;stroke:#000000;stroke-width:0.21602701" />
    <path
       d="m 513.328,297.715 c 0,-1.174 -0.828,-2.184 -2.012,-2.184 -1.185,0 -2.182,1.01 -2.182,2.184 0,1.188 0.997,2.198 2.182,2.198 1.184,0 2.012,-1.01 2.012,-2.198 z"
       id="path3697"
       style="fill:#f6c10b;stroke:#000000;stroke-width:0.21602701" />
    <path
       d="m 609.063,482.747 c -5.062,-4.382 -10.951,-6.23 -17.026,-6.23 l -0.169,0 c -0.169,0 -0.169,0 -0.339,0 l -143.232,0 23.758,-31.515 10.951,-1.348 7.41,-9.772 -9.933,0 1.166,-1.69 10.46,-0.672 6.227,-8.095 -8.578,-1.848 1.335,-1.848 9.274,0.838 7.751,-10.277 -13.978,0 -4.382,-14.161 -7.77,10.282 2.372,8.089 -0.849,1.185 -3.536,-6.58 -6.074,8.265 1.015,9.602 -1.168,1.69 -1.693,-9.108 -7.26,9.78 1.524,11.45 -22.915,30.338 0,-24.768 7.921,-7.921 0,-12.471 -7.921,6.23 0,-2.023 7.921,-7.077 0,-10.276 -7.921,4.046 0,-2.526 7.921,-4.892 0,-12.974 -11.118,8.592 -11.625,-8.592 0,12.974 6.566,4.892 0,1.688 -6.566,-3.208 0,10.276 6.566,7.077 0,2.023 -6.566,-6.23 0,12.471 7.92,8.085 0,25.281 -23.42,-31.015 1.505,-11.45 -7.413,-9.78 -1.673,9.108 -1.185,-1.69 1.185,-9.602 -6.247,-8.265 -3.366,6.58 -1.016,-1.185 2.351,-8.089 -7.732,-10.282 -4.382,14.161 -13.995,0 7.748,10.277 9.275,-0.838 1.504,1.848 -8.576,1.848 6.056,8.095 10.44,0.672 1.185,1.69 -9.932,0 7.412,9.772 11.118,1.348 23.758,31.515 -141.218,0 c -6.227,-0.175 -12.455,1.687 -17.702,6.23 -23.082,22.915 10.29,51.569 23.946,27.81 3.708,-10.276 -6.244,-15.171 -15.499,-12.138 -0.847,-8.925 13.129,-11.287 19.715,-6.741 l 13.299,12.982 12.302,11.625 c 16.687,13.141 30.174,18.031 43.304,16.008 11.139,-1.682 22.257,-8.254 35.067,-18.702 5.717,-5.229 10.779,-9.275 15.838,-11.8 l -50.717,67.403 -0.188,-0.341 -4.382,-13.307 -3.517,-0.505 c -0.341,16.687 -4.573,30.843 -12.152,45.168 l 1.693,1.344 c 5.886,-5.728 11.964,-10.11 18.358,-13.821 6.585,-3.871 13.659,-7.079 21.41,-9.938 l -1.357,-3.208 -14.314,-0.835 56.791,-75.332 c 1.507,-0.164 3.031,-0.164 4.723,-0.164 l 0,105.659 -11.794,-8.089 -3.05,1.684 c 9.616,13.649 14.844,27.472 17.195,43.479 l 2.031,0 c 2.692,-16.521 8.767,-29.492 17.345,-43.479 l -2.858,-1.684 -11.967,8.256 0,-105.662 c 1.338,-0.164 2.692,-0.164 4.046,-0.164 l 56.961,75.496 -14.503,0.835 -1.166,3.208 c 8.767,3.372 16.837,7.08 24.436,11.787 5.212,3.372 10.271,7.257 15.163,11.972 l 1.674,-1.344 c -7.582,-14.325 -11.625,-28.481 -12.133,-45.168 l -3.369,0.505 -1.335,3.88 -3.217,9.768 -51.882,-68.752 c 6.058,2.534 11.945,6.744 18.869,13.149 13.299,10.948 24.585,17.517 36.23,18.868 12.793,1.524 25.942,-3.372 42.119,-16.174 l 12.305,-11.625 13.976,-12.646 c 6.077,-5.22 19.903,-4.044 19.057,6.405 -9.952,-3.533 -20.223,3.71 -15.672,13.149 13.64,23.586 47.181,-5.906 24.1,-28.821 z m -198.012,6.07 0,0 -26.789,12.302 c -5.569,2.695 -10.459,4.543 -15.013,5.728 -16.515,4.207 -27.802,-1.185 -42.796,-12.638 -6.564,-4.89 -12.98,-9.777 -19.715,-13.307 l 125.041,0 c -6.752,1.338 -13.657,4.207 -20.728,7.915 z m 143.738,5.392 0,0 c -14.653,11.292 -25.79,16.682 -41.611,12.977 -4.89,-1.185 -10.121,-3.208 -16.177,-6.067 l -24.777,-12.302 c -7.09,-3.872 -13.825,-6.577 -20.392,-7.915 l 122.672,0 c -6.736,3.53 -13.149,8.417 -19.715,13.307 z"
       id="path3699"
       style="fill:#1f221d;stroke:#000000;stroke-width:0.21602701" />
    <path
       d="m 284.164,486.794 c -17.702,4.382 -16.687,28.306 0.339,26.961 13.132,-1.854 2.861,-16.174 -1.016,-5.057 -14.333,0 -7.581,-18.369 0.677,-21.904 z"
       id="path3701"
       style="fill:#bbc1c1;stroke:#000000;stroke-width:0.21602701" />
    <path
       d="m 596.25,486.794 c 17.683,4.382 16.687,28.306 -0.339,26.961 -13.148,-1.854 -3.705,-15.5 1.188,-5.057 14.145,0 7.41,-18.369 -0.849,-21.904 z"
       id="path3703"
       style="fill:#bbc1c1;stroke:#000000;stroke-width:0.21602701" />
    <path
       d="m 399.085,511.901 c -21.239,17.525 -42.458,21.568 -66.743,3.713 29.836,11.625 42.138,7.076 66.743,-3.713 z"
       id="path3705"
       style="fill:#bbc1c1;stroke:#000000;stroke-width:0.21602701" />
    <path
       d="m 482.495,511.901 c 21.239,17.525 42.458,21.568 66.746,3.713 -29.836,11.625 -42.138,7.076 -66.746,-3.713 z"
       id="path3707"
       style="fill:#bbc1c1;stroke:#000000;stroke-width:0.21602701" />
    <path
       d="m 354.257,594.137 c 4.552,-9.776 8.428,-20.228 8.428,-31.001 1.185,5.22 1.862,10.773 6.244,14.658 -5.059,4.21 -9.443,9.938 -14.672,16.343 z"
       id="path3709"
       style="fill:#bbc1c1;stroke:#000000;stroke-width:0.21602701" />
    <path
       d="m 439.53,633.231 c -1.354,-10.448 -4.382,-19.887 -10.459,-29.491 l 9.951,8.766 0.508,20.725 z"
       id="path3711"
       style="fill:#bbc1c1;stroke:#000000;stroke-width:0.21602701" />
    <path
       d="m 493.954,577.281 c 19.715,-0.333 20.728,0.677 30.341,18.033 -8.425,-8.253 -19.393,-14.148 -30.341,-18.033 z"
       id="path3713"
       style="fill:#bbc1c1;stroke:#000000;stroke-width:0.21602701" />
    <path
       d="m 406.328,657.495 c -4.721,-3.033 -10.271,-5.22 -16.499,-7.243 -0.338,-0.172 -0.527,-0.339 -0.846,-0.339 0.319,0.167 0.508,0.339 0.846,0.68 9.425,6.738 13.979,13.307 16.499,20.386 1.523,4.044 2.2,8.429 2.878,12.974 l 10.271,-1.01 2.522,-0.338 c -0.677,-3.372 -1.507,-6.405 -2.522,-9.092 -3.028,-7.415 -7.413,-12.308 -13.149,-16.018 z"
       id="path3715"
       style="fill:#f6c10b;stroke:#000000;stroke-width:0.21602701" />
    <path
       d="m 406.328,91.6306 c 1.693,-0.6744 3.555,-1.185 5.4,-1.69 -0.51,-10.2738 -1.695,-22.2431 -5.4,-34.3734 -2.689,-8.6002 -6.566,-17.3533 -12.114,-25.7814 -1.524,0.4996 -2.878,1.0129 -4.385,1.5098 -6.921,2.3616 -13.656,5.231 -20.239,8.5919 -0.491,0.1748 -0.999,0.5133 -1.507,0.8464 0.508,0.5051 1.016,1.0129 1.507,1.5235 7.429,7.9176 14.503,18.1969 20.239,28.3096 4.704,8.2534 8.409,16.3403 10.951,23.0839 1.843,-0.6716 3.705,-1.3487 5.548,-2.0203 z"
       id="path3717"
       style="fill:#f6c10b;stroke:#000000;stroke-width:0.21602701" />
    <path
       d="m 286.346,117.914 c 1.185,0.672 2.523,1.349 3.708,2.023 13.148,7.077 29.835,9.264 46.181,6.406 10.102,-1.685 20.054,-5.395 29.159,-11.129 1.504,-0.835 2.858,-1.848 4.196,-2.858 0.505,-0.339 1.013,-0.672 1.693,-1.185 l -0.511,-0.161 c -0.335,-1.016 -0.677,-2.021 -1.182,-3.039 -1.168,-3.205 -2.353,-6.738 -4.196,-10.7817 -4.571,-10.454 -12.322,-23.2505 -28.482,-35.217 l 0,0.1665 c -0.188,0.1638 -0.527,0.3386 -0.677,0.4969 -5.059,4.5594 -13.149,13.4873 -17.195,18.3798 6.059,2.8586 11.797,6.0584 17.195,9.7687 7.751,5.3922 14.656,12.1328 20.204,21.0638 -5.887,3.879 -12.961,6.241 -20.204,7.079 -11.964,1.349 -24.435,-1.848 -33.541,-9.605 -3.704,-3.208 -3.197,-8.428 0.847,-10.9533 -5.57,0 -10.121,0.5024 -13.487,1.5153 -11.626,3.372 -11.795,11.8 -3.708,18.03 z"
       id="path3719"
       style="fill:#f6c10b;stroke:#000000;stroke-width:0.21602701" />
    <path
       d="m 185.912,334.45 c 6.394,-4.881 10.968,-12.974 13.149,-23.25 l 0.169,0 c 3.367,-15.166 5.229,-28.979 6.075,-42.627 1.168,-15.671 0.83,-30.843 0,-47.025 -2.539,-32.012 -5.398,-44.312 -16.703,-62.006 -0.828,-1.182 -1.674,-2.359 -2.69,-3.211 -12.982,-12.471 -43.304,-6.902 -45.149,15.677 -0.508,16.515 10.44,28.143 26.281,25.107 15.668,-2.184 17.361,-20.894 6.563,-28.809 -7.748,-5.903 -23.589,0.33 -15.499,10.779 4.212,5.056 9.782,0.674 11.456,-0.677 l 1.015,3.208 c -4.043,4.548 -11.625,5.897 -17.023,-1.685 -8.766,-15.172 15.331,-27.807 27.972,-10.11 1.692,2.187 3.027,4.377 4.384,6.738 9.441,16.682 12.133,36.735 11.964,62.522 l -1.335,0 c -1.188,-6.918 -0.511,-14.161 -3.896,-22.59 -1.674,-4.043 -4.043,-6.23 -6.733,-7.24 -7.412,-2.695 -16.687,4.72 -15.84,12.297 6.566,-0.838 11.963,3.546 15.84,10.953 9.952,18.539 11.456,55.787 4.044,77.861 -1.016,3.372 -2.351,6.397 -4.044,8.758 -2.522,3.88 -5.55,6.58 -8.936,7.751 -7.582,1.524 -13.148,0.339 -16.668,-2.694 -7.77,-6.572 -5.397,-18.033 1.674,-21.738 5.4,-2.701 15.521,0.169 14.506,7.076 l -1.527,2.198 c -3.705,-9.438 -11.625,-6.743 -13.995,-1.185 -2.012,5.229 -0.169,13.144 12.982,11.626 12.641,-2.859 11.795,-18.869 6.564,-23.426 -26.956,-23.425 -56.772,25.11 -17.345,39.941 9.274,2.023 16.856,0.341 22.745,-4.219 z"
       id="path3721"
       style="fill:#f6c10b;stroke:#000000;stroke-width:0.21602701" />
    <path
       d="m 369.59,48.4904 c -1.338,-1.6845 -2.692,-3.3717 -4.196,-4.8898 -0.339,-0.3412 -0.677,-0.6798 -1.016,-1.0019 -0.508,0.3221 -0.846,0.4969 -1.354,0.8354 -7.92,4.5431 -15.502,9.7769 -22.573,15.6714 -0.17,0 -0.342,0.172 -0.511,0.3331 10.782,7.4207 18.869,15.3356 25.454,22.7536 1.504,1.8566 2.858,3.5356 4.196,5.2202 4.89,5.9027 8.764,11.6334 11.964,16.3516 2.708,-1.685 5.567,-3.369 8.275,-4.8929 0.32,-0.1638 0.658,-0.3358 0.999,-0.5024 -0.341,-1.1794 -0.679,-2.5309 -0.999,-4.0434 -3.216,-13.146 -9.441,-31.6896 -20.239,-45.8349 z"
       id="path3723"
       style="fill:#f6c10b;stroke:#000000;stroke-width:0.21602701" />
    <path
       d="m 247.085,115.389 c 3.37,3.197 6.905,6.23 10.613,9.094 9.951,7.587 20.73,12.982 32.356,16.354 7.917,2.187 16.176,3.372 24.943,3.874 7.074,0.5 14.314,0.161 21.238,-0.851 2.861,-0.432 5.72,-1.011 8.559,-1.693 19.715,-4.016 39.807,-9.777 59.691,4.054 l -0.339,-2.187 c -3.876,-10.11 -15.332,-14.156 -24.945,-12.971 -4.175,0.519 -12.245,3.552 -16.477,5.056 0.882,-0.385 1.785,-0.772 2.67,-1.184 1.335,-0.503 2.858,-1.177 4.196,-2.024 0.847,-0.338 1.693,-0.841 2.709,-1.348 7.24,-3.872 12.302,-6.905 17.53,-10.615 2.012,-1.349 4.046,-2.695 6.228,-4.382 0,0 0.338,-0.167 0.827,-0.5 2.708,-2.359 6.247,-5.056 9.444,-5.905 2.37,-0.5 4.554,-0.167 6.413,2.025 l -1.182,1.005 c -1.357,-1.682 -3.2,-1.846 -5.231,-1.343 -2.351,0.671 -5.062,2.531 -7.243,4.382 -0.847,2.697 0.507,6.405 3.538,8.428 1.185,0.508 2.351,0.674 3.705,0.674 5.4,-0.341 11.287,-5.223 13.149,-11.289 0.846,-2.359 0.846,-5.054 0,-7.59 l 0,-0.164 c -2.69,-5.894 -7.072,-8.5919 -13.149,-7.5817 -3.197,0.6771 -6.736,2.0227 -10.779,4.5487 -2.012,1.349 -3.877,2.525 -5.72,3.871 -6.752,4.557 -13.487,8.939 -20.239,12.644 -1.338,0.838 -2.861,1.515 -4.196,2.362 -2.878,1.351 -5.739,2.686 -8.617,3.871 -6.902,2.7 -13.806,4.721 -20.542,5.897 -15.838,2.87 -31.19,1.346 -46.181,-5.897 -11.118,-5.22 -21.9,-13.648 -32.356,-25.609 -0.32,-0.336 -0.661,-0.6775 -0.997,-1.0106 -3.219,-3.7104 -7.601,-7.7538 -6.077,-13.6566 0.508,-2.1869 2.031,-3.7103 3.874,-4.7123 0.846,-0.5078 2.012,-0.8464 3.2,-1.0129 0.846,-0.172 1.693,-0.172 2.708,0 3.197,0.5051 6.394,2.5254 7.413,6.5716 l -2.373,0.4997 c -0.827,-2.8613 -3.028,-4.21 -5.378,-4.5459 -0.847,-0.172 -1.693,-0.172 -2.37,0 -0.847,0.172 -1.507,0.3359 -2.184,0.6744 -1.185,0.6717 -2.201,1.6846 -2.52,3.0333 -0.527,2.0231 0.15,4.7205 2.858,8.2534 0,0 0,0 0,-0.1638 0.508,0.6771 1.185,1.174 1.846,1.5125 3.535,2.0231 7.92,1.0129 11.456,-3.0332 4.72,-6.4051 0.677,-16.5096 -11.456,-18.3689 -1.507,-0.1638 -3.2,-0.3331 -4.893,-0.3331 -2.012,0.1693 -4.043,0.6716 -5.72,1.3433 -13.148,4.5567 -17.192,20.3919 -3.046,36.7401 1.034,1.005 2.034,2.193 3.046,3.203 z"
       id="path3725"
       style="fill:#f6c10b;stroke:#000000;stroke-width:0.21602701" />
    <path
       d="m 422.846,87.2458 c 2.858,-0.3385 5.736,-0.6716 8.594,-1.0101 0.17,0 0.511,0 0.847,0 2.353,-17.6918 3.2,-37.7453 3.369,-63.1936 0,0 0,0 -0.169,0 -1.355,0 -2.69,0.1666 -4.047,0.1666 -4.043,0.172 -8.086,0.505 -11.963,1.0101 -4.382,0.6717 -8.767,1.3488 -13.149,2.3617 -2.859,0.6716 -5.548,1.3487 -8.259,2.0203 l -0.169,0.1748 c 3.03,4.5431 5.908,9.0998 8.428,13.6483 5.736,10.6124 10.121,21.0636 13.149,31.1736 1.504,4.7233 2.522,9.2664 3.369,13.6483 z"
       id="path3727"
       style="fill:#f6c10b;stroke:#000000;stroke-width:0.21602701" />
    <path
       d="m 216.422,398.995 c 1.846,-3.877 3.031,-8.758 3.708,-14.661 l -0.169,-237.6 27.124,0.17 10.613,0.164 32.356,0.174 9.274,0.164 c -3.03,-0.846 -6.077,-1.687 -9.274,-2.858 -10.779,-3.547 -22.405,-9.106 -32.356,-16.019 -3.877,-2.686 -7.413,-5.558 -10.613,-8.592 -7.917,-7.418 -13.656,-16.01 -15.16,-25.4479 -1.862,4.382 -5.567,10.7899 -8.767,14.8329 5.062,10.787 12.979,19.382 23.927,25.274 1.338,0.672 2.862,1.349 4.216,2.023 l -1.524,2.195 c -1.015,-0.508 -1.842,-1.01 -2.692,-1.349 -12.471,-6.577 -19.054,-13.146 -25.77,-24.946 -1.354,1.86 -3.047,3.711 -4.893,5.57 -0.677,0.838 -1.523,1.682 -2.369,2.695 0.51,1.515 1.356,3.033 2.369,4.548 5.043,7.077 14.656,13.821 16.668,14.159 l -1.843,2.023 c -6.244,-3.208 -11.117,-7.59 -14.825,-11.8 -1.859,-2.361 -3.385,-4.548 -4.551,-6.571 -2.539,2.7 -6.247,6.397 -8.767,8.758 3.708,1.346 8.936,6.738 9.594,9.439 l -2.181,1.684 c -1.674,-3.871 -5.398,-7.582 -9.782,-9.1 l -8.24,6.067 c 5.043,1.682 7.92,6.405 9.932,10.11 l -2.689,2.187 c -1.185,-4.369 -6.077,-8.925 -10.61,-10.102 l -3.216,1.848 -4.892,3.208 c 1.692,1.002 3.385,2.187 4.892,3.697 9.106,8.092 15.35,21.577 18.885,37.246 6.228,27.132 5.889,60.16 4.366,80.552 -0.847,11.123 -2.182,28.815 -5.889,43.978 -3.367,11.295 -8.767,21.41 -17.362,26.792 -5.4,3.546 -11.964,5.231 -20.053,4.043 5.228,6.408 8.089,11.292 17.361,9.952 1,-0.172 1.846,-0.339 2.692,-0.672 18.208,-5.056 23.081,-21.402 26.448,-37.073 l 1.526,5.386 c -3.877,20.725 -14.994,32.02 -27.974,35.384 -2.184,0.513 -4.384,0.846 -6.566,0.846 l 5.209,8.931 c 0.511,0.175 0.849,0.338 1.357,0.508 9.106,2.187 27.125,-8.936 26.128,-20.9 l 1.846,4.723 c 0.677,9.772 -18.868,21.572 -27.297,19.215 l 3.028,11.112 c 3.874,4.385 21.069,0.336 23.27,-9.089 l 2.522,1.849 c -2.861,8.592 -20.056,16.853 -26.807,9.602 -0.997,0.674 -1.843,1.346 -2.69,2.023 -7.243,6.58 -5.889,16.005 0,21.735 2.351,2.198 5.567,3.883 9.106,4.56 10.101,1.01 17.342,-3.208 21.404,-12.647 z"
       id="path3729"
       style="fill:#f6c10b;stroke:#000000;stroke-width:0.21602701" />
    <path
       d="m 309.938,94.3253 7.92,17.6917 c 3.536,2.864 10.121,3.874 18.377,3.197 4.216,-0.497 8.578,-1.171 13.49,-2.52 -5.4,-2.361 -9.785,-4.557 -13.49,-7.077 -7.579,-5.056 -12.979,-10.9532 -19.715,-21.5682 l -2.708,-5.0564 c 6.585,-8.6002 14.167,-16.515 22.423,-23.4252 8.917,-7.59 18.869,-14.1562 29.159,-19.5511 1.335,-0.6771 2.858,-1.3487 4.196,-2.0204 0.677,-0.3385 1.354,-0.677 1.859,-1.0101 6.059,-2.7002 12.136,-5.2202 18.38,-7.2433 2.523,-0.8518 5.043,-1.5235 7.563,-2.1978 2.878,-0.8355 5.908,-1.5125 8.936,-2.1842 4.382,-1.0129 8.767,-1.69 13.149,-2.1978 3.877,-0.5024 7.92,-0.8382 11.963,-1.0102 2.185,-0.1665 4.385,-0.1665 6.567,-0.1665 2.031,0 4.215,0 6.416,0.1665 4.043,0.172 8.086,0.5078 11.944,1.0102 4.382,0.5078 8.955,1.1849 13.149,2.1978 3.047,0.6717 6.077,1.3487 8.936,2.1842 2.539,0.6743 5.059,1.346 7.582,2.1978 6.244,2.0231 12.471,4.5431 18.377,7.2433 0.677,0.3331 1.168,0.6716 1.846,1.0101 1.354,0.6717 2.877,1.3433 4.212,2.0204 10.46,5.3949 20.223,11.9611 29.159,19.5511 8.259,6.9102 15.838,14.825 22.423,23.4252 l -2.708,5.0564 c -6.736,10.615 -12.133,16.5122 -19.715,21.5682 -3.705,2.52 -8.09,4.716 -13.318,7.077 4.72,1.349 9.272,2.187 13.318,2.52 8.259,0.677 14.822,-0.333 18.38,-3.197 l 7.901,-17.6917 2.878,-6.5744 5.717,-12.6381 c 0,0 0,0 0.169,0 -8.764,-15.6742 -20.9,-28.8202 -35.045,-39.2605 -8.936,-6.5771 -18.699,-12.1386 -29.159,-16.6898 -1.335,-0.6771 -2.858,-1.1767 -4.212,-1.8484 -6.567,-2.5254 -13.302,-4.7205 -20.223,-6.5689 -5.381,-1.35143 -10.948,-2.53634 -16.518,-3.3745 -4.194,-0.84638 -8.767,-1.34873 -13.149,-1.6818 -3.858,-0.33856 -7.901,-0.67712 -11.944,-0.67712 -2.201,-0.17474 -4.385,-0.17474 -6.416,-0.17474 -2.182,0 -4.382,0 -6.567,0.17474 -4.043,0 -8.086,0.33856 -11.963,0.67712 -4.382,0.33307 -8.767,0.83542 -13.149,1.6818 -5.548,0.83816 -11.118,2.02307 -16.499,3.3745 -6.921,1.8484 -13.656,4.0435 -20.239,6.5689 -1.338,0.6717 -2.861,1.1713 -4.196,1.8484 -10.46,4.5512 -20.242,10.1127 -29.159,16.6898 -14.164,10.4403 -26.128,23.5863 -34.895,39.2605 l 5.736,12.6381 2.862,6.5744 z"
       id="path3731"
       style="fill:#f6c10b;stroke:#000000;stroke-width:0.21602701" />
    <path
       d="m 477.794,28.6008 c -2.708,-0.6716 -5.4,-1.3487 -8.278,-2.0203 -4.194,-1.0129 -8.767,-1.69 -13.149,-2.3617 -3.858,-0.5051 -7.901,-0.8381 -11.944,-1.0101 -1.355,0 -2.709,-0.1666 -4.047,-0.1666"
       id="path3733"
       style="fill:none;stroke:#1f221d;stroke-width:1.00018799" />
    <path
       d="m 440.376,23.0421 -0.169,0"
       id="path3735"
       style="fill:none;stroke:#1f221d;stroke-width:1.00018799" />
    <path
       d="m 486.034,31.2956 c -1.505,-0.4969 -2.861,-1.0102 -4.385,-1.5098 -5.548,8.4281 -9.425,17.1812 -12.133,25.7814 -3.536,12.1303 -4.871,24.0996 -5.209,34.3734 1.673,0.505 3.535,1.0156 5.209,1.69 2.031,0.6716 3.896,1.3487 5.57,2.0203 2.52,-6.7436 6.394,-14.8305 10.948,-23.0839 5.736,-10.1127 12.81,-20.392 20.223,-28.3096 0.507,-0.5106 1.015,-1.0184 1.692,-1.5235 -0.677,-0.3331 -1.185,-0.6716 -1.692,-0.8464 -6.567,-3.3609 -13.302,-6.2303 -20.223,-8.5919 z"
       id="path3737"
       style="fill:#f6c10b;stroke:#000000;stroke-width:0.21602701" />
    <path
       d="m 486.034,94.3253 c -0.32,1.5125 -0.658,2.864 -0.997,4.0434 0.339,0.1666 0.677,0.3386 0.997,0.5024 2.708,1.5239 5.567,3.2079 8.256,4.8929 3.369,-4.7182 7.093,-10.4489 11.967,-16.3516 1.354,-1.6846 2.689,-3.3636 4.212,-5.2202 6.586,-7.418 14.675,-15.3329 25.454,-22.7536 -0.172,-0.1611 -0.341,-0.3331 -0.341,-0.3331 -7.072,-5.8945 -14.823,-11.1283 -22.743,-15.6714 -0.339,-0.3385 -0.846,-0.5133 -1.185,-0.8354 -0.169,0 -0.169,0 -0.169,0 -0.339,0.3221 -0.677,0.6607 -1.016,1.0019 -1.523,1.5181 -2.858,3.2053 -4.212,4.8898 -10.779,14.1453 -17.026,32.5251 -20.223,45.8349 z"
       id="path3739"
       style="fill:#f6c10b;stroke:#000000;stroke-width:0.21602701" />
    <path
       d="m 573.149,109.322 c -9.086,7.757 -21.557,10.954 -33.521,9.605 -7.243,-0.838 -14.148,-3.2 -20.223,-7.079 5.548,-8.931 12.472,-15.6716 20.223,-21.0638 5.381,-3.7103 11.287,-6.9101 17.192,-9.7687 -4.043,-4.8925 -12.152,-13.8204 -17.192,-18.3798 -0.169,-0.1583 -0.339,-0.3331 -0.508,-0.4969 -0.169,0 -0.169,-0.1665 -0.169,-0.1665 -16.179,11.9665 -23.928,24.763 -28.482,35.217 -1.673,4.0437 -3.028,7.5767 -4.212,10.7817 -0.339,1.018 -0.828,2.023 -1.169,3.039 l -0.336,0.161 c 0.489,0.513 0.997,0.846 1.505,1.185 1.354,1.01 2.877,2.023 4.212,2.858 9.105,5.734 19.057,9.444 29.159,11.129 16.346,2.858 33.033,0.671 46.162,-6.406 1.357,-0.674 2.542,-1.351 3.708,-2.023 8.278,-6.23 7.937,-14.658 -3.708,-18.03 -3.347,-1.0129 -7.917,-1.5153 -13.298,-1.5153 4.043,2.5253 4.551,7.7453 0.657,10.9533 z"
       id="path3741"
       style="fill:#f6c10b;stroke:#000000;stroke-width:0.21602701" />
    <path
       d="m 618.318,95.8378 c 0.508,-0.3385 1.185,-0.8354 1.862,-1.5125 0,0.1638 0,0.1638 0,0.1638 2.52,-3.5329 3.197,-6.2303 2.689,-8.2534 -0.319,-1.3487 -1.335,-2.3616 -2.52,-3.0333 -0.677,-0.3385 -1.354,-0.5024 -2.031,-0.6744 -0.827,-0.172 -1.676,-0.172 -2.523,0 -2.35,0.3359 -4.551,1.6846 -5.228,4.5459 l -2.52,-0.4997 c 1.016,-4.0462 4.213,-6.0665 7.41,-6.5716 1.016,-0.172 1.843,-0.172 2.861,0 1.016,0.1665 2.201,0.5051 3.216,1.0129 1.674,1.002 3.197,2.5254 3.686,4.7123 1.524,5.9028 0,9.7715 -3.347,13.318 -1.185,1.3492 -2.37,2.5202 -3.555,3.7072 -10.948,10.779 -21.56,18.533 -32.528,23.59 -14.991,6.904 -30.152,8.428 -46.162,5.22 -8.936,-1.849 -18.041,-5.22 -27.466,-10.102 -0.508,-0.175 -1.185,-0.339 -1.693,-0.677 -1.335,-0.508 -2.858,-1.185 -4.212,-1.857 -4.554,-2.023 -8.917,-4.384 -13.979,-7.243 -1.693,-1.013 -3.874,-2.536 -6.244,-4.218 -5.043,-3.375 -10.948,-7.582 -16.518,-8.5949 -5.043,-1.174 -9.763,0.3413 -13.149,7.2429 0,0.175 -0.15,0.339 -0.15,0.514 -1.185,3.033 -0.846,6.066 0.15,8.925 2.201,5.395 7.94,9.779 13.149,9.943 1.523,0.175 3.047,0 4.385,-0.677 3.047,-2.023 3.216,-4.71 2.539,-7.404 -2.201,-1.688 -4.554,-3.372 -6.924,-4.224 -2.012,-0.672 -4.043,-0.672 -5.548,1.188 l -1.185,-1.188 c 1.862,-2.181 4.382,-2.52 6.733,-1.682 3.219,0.847 6.416,3.372 9.105,5.734 0.508,0.172 0.847,0.508 0.847,0.508 2.35,1.687 4.551,3.197 6.566,4.382 5.228,3.199 10.459,5.558 17.7,9.43 0.846,0.507 1.695,1.01 2.523,1.348 1.354,0.847 2.877,1.521 4.212,2.024 0.189,0.084 0.358,0.155 0.527,0.229 -4.385,-1.581 -10.366,-3.678 -13.656,-4.101 -9.783,-1.185 -21.747,2.861 -25.793,12.971 l -0.338,2.187 c 21.934,-15.256 39.956,-6.937 64.733,-2.987 1.221,0.232 2.444,0.443 3.686,0.626 7.071,1.012 14.145,1.351 21.238,0.851 8.767,-0.502 17.195,-1.687 24.924,-3.874 11.645,-3.372 22.426,-8.767 32.528,-16.354 3.555,-2.864 7.091,-5.897 10.457,-9.094 1.018,-1.01 2.184,-2.198 3.2,-3.203 13.995,-16.3482 9.951,-32.1834 -3.2,-36.7401 -1.693,-0.6717 -3.705,-1.174 -5.736,-1.3433 -1.674,0 -3.367,0.1693 -4.721,0.3331 -12.136,1.8593 -16.16,11.9638 -11.625,18.3689 3.536,4.0461 7.918,5.0563 11.625,3.0332 z"
       id="path3743"
       style="fill:#f6c10b;stroke:#000000;stroke-width:0.21602701" />
    <path
       d="m 466.657,683.953 c 0.678,-4.545 1.524,-8.93 2.859,-12.974 2.539,-7.079 7.093,-13.648 16.518,-20.386 0.338,-0.341 0.508,-0.513 0.846,-0.68 -0.169,0 -0.508,0.167 -0.846,0.339 -6.228,2.023 -11.795,4.21 -16.518,7.243 -5.72,3.71 -10.102,8.603 -13.149,16.182 -0.996,2.523 -1.843,5.556 -2.52,8.928 l 2.52,0.338 10.29,1.01 z"
       id="path3745"
       style="fill:#f6c10b;stroke:#000000;stroke-width:0.21602701" />
    <path
       d="m 689.612,340.02 c -8.428,-5.57 -13.656,-15.843 -16.853,-27.305 -3.877,-15.163 -5.231,-32.855 -6.078,-43.978 -2.012,-28.146 -1.843,-80.724 14.675,-108.354 2.351,-3.877 5.04,-7.082 8.256,-9.605 1.507,-1.349 3.2,-2.359 5.043,-3.372 l -5.043,-3.372 -2.877,-1.848 c -4.552,1.177 -9.425,5.733 -10.61,10.102 l -2.708,-2.187 c 2.2,-3.705 4.889,-8.428 9.951,-10.11 l -8.259,-6.067 c -4.382,1.518 -8.089,5.229 -9.594,9.1 l -2.369,-1.684 c 0.677,-2.701 5.886,-8.093 9.613,-9.439 -2.373,-2.361 -6.247,-6.058 -8.767,-8.758 -1.185,2.023 -2.689,4.21 -4.554,6.571 -3.705,4.21 -8.595,8.592 -14.842,11.8 l -1.673,-2.023 c 2.012,-0.338 11.456,-7.082 16.515,-14.159 1.018,-1.515 1.865,-3.033 2.353,-4.548 -0.827,-1.013 -1.504,-1.857 -2.353,-2.695 -1.843,-1.859 -3.536,-3.71 -4.89,-5.57 -6.563,11.8 -13.299,18.369 -25.773,24.946 -0.846,0.339 -1.693,0.841 -2.708,1.349 l -1.505,-2.195 c 1.505,-0.674 2.859,-1.351 4.213,-2.023 10.948,-5.892 18.868,-14.487 24.1,-25.274 -3.367,-4.043 -6.905,-10.4509 -8.937,-14.8329 -1.523,9.4379 -7.243,18.0299 -15.163,25.4479 -3.197,3.034 -6.752,5.906 -10.457,8.592 -10.102,6.913 -21.73,12.472 -32.528,16.019 -3.197,1.171 -6.225,2.012 -9.255,2.858 l 9.255,-0.164 32.528,-0.174 10.457,-0.164 27.127,-0.17 0,237.6 c 0.508,5.903 1.693,10.784 3.536,14.661 4.046,9.439 11.289,13.657 21.41,12.647 3.367,-0.677 6.394,-2.198 8.764,-4.221 6.228,-5.731 7.751,-15.669 0,-22.413 -0.677,-0.674 -1.523,-1.176 -2.37,-1.684 -6.735,7.251 -23.927,-1.01 -26.786,-9.602 l 2.52,-1.849 c 2.351,9.425 19.396,13.474 23.251,9.089 l 3.047,-11.112 c -8.426,2.357 -27.971,-9.443 -27.294,-19.215 l 1.843,-4.723 c -0.847,11.964 16.515,22.753 25.789,20.9 0.489,-0.17 1.166,-0.333 1.677,-0.508 l 5.228,-8.931 c -2.37,0 -4.721,-0.508 -6.905,-1.01 -12.81,-3.369 -23.777,-14.661 -27.632,-35.22 l 1.673,-5.386 c 3.197,15.496 8.09,31.678 25.959,37.073 1,0.333 2.015,0.5 3.031,0.672 9.255,1.34 11.456,-3.033 16.684,-9.439 -7.92,1.011 -14.503,-0.513 -19.715,-4.043 z"
       id="path3747"
       style="fill:#f6c10b;stroke:#000000;stroke-width:0.21602701" />
    <path
       d="m 674.771,415.51 c -7.921,-2.361 -11.456,1.524 -12.98,8.429 -2.181,-4.385 -2.012,-8.429 -2.353,-13.987 0,-0.508 -0.169,-1.01 -0.169,-1.518 -4.721,5.228 -6.244,11.12 -3.367,18.03 l 3.536,7.926 2.353,5.384 3.386,20.228 c -1.862,-2.19 -4.044,-4.21 -5.739,-6.408 -0.169,-0.164 -0.336,-0.338 -0.505,-0.502 l -3.539,-7.252 c -0.338,4.896 -2.031,9.952 -0.677,14.659 1.016,3.885 2.69,6.405 4.721,9.613 0.341,0.502 0.677,1.01 1.018,1.687 11.795,20.39 12.133,20.39 9.425,43.473 -3.877,-2.528 -6.735,-6.574 -8.748,-12.471 0.17,-3.197 0.997,-4.546 0.508,-7.754 -0.188,-1.171 -1.185,-2.187 -2.203,-3.194 -1.354,-1.185 -2.689,-2.201 -3.366,-3.547 0,-4.72 3.707,-8.756 0.338,-12.799 l -3.385,-4.893 c -1.166,9.275 -2.351,11.626 -3.858,20.728 -0.505,3.88 -1.693,11.634 -3.197,15.33 -3.555,8.6 -9.275,11.301 -7.429,22.587 1.862,11.8 5.905,23.426 -1.507,41.617 l -4.552,9.613 -3.707,-3.208 -0.846,-0.835 c 0.341,-0.339 0.679,-0.847 0.846,-1.185 5.381,-8.428 2.353,-13.982 0,-19.377 l 0,-0.163 c -0.677,-3.547 -0.846,-9.952 0,-13.823 0.153,-0.339 0.153,-0.506 0.153,-0.839 0,0.167 0,0.167 -0.153,0.333 -2.52,4.038 -6.902,10.782 -9.441,14.492 -0.339,0.672 -0.68,1.185 -1.016,1.682 -2.523,3.547 -5.062,7.254 -6.566,11.123 -1.523,4.049 -1.693,7.243 -2.539,11.467 -2.692,9.938 -0.997,19.038 -6.228,26.281 -9.594,11.29 -8.917,4.221 -6.058,-3.369 -0.677,-1.687 -2.859,-3.033 -2.859,-4.887 -0.188,-2.867 1.674,-3.541 2.182,-6.239 l 2.015,-8.927 c -4.046,4.892 -8.09,9.938 -12.475,14.658 -1.842,2.023 -3.705,3.88 -5.717,5.57 -4.72,4.376 -8.766,7.415 -13.659,11.45 -2.52,2.023 -4.701,5.057 -7.071,7.59 -1.674,1.685 -5.72,3.872 -8.09,4.718 -3.705,1.515 -7.582,3.025 -11.625,4.549 -9.613,3.53 -19.715,7.076 -29.159,11.625 -1.335,0.671 -2.858,1.518 -4.212,2.198 -7.582,4.207 -14.487,9.089 -20.223,15.494 -1.505,1.684 -3.028,3.707 -4.385,5.569 -5.378,7.915 -9.086,15.669 -11.456,23.584 l -0.677,-0.164 -13.149,-1.684 -0.319,0 -1.185,10.276 -9.782,-1.518 c 0,2.02 -0.339,3.88 -0.658,5.728 -1.019,6.405 -3.877,11.625 -6.416,12.81 -2.69,-1.185 -5.551,-6.405 -6.567,-12.81 -0.338,-1.848 -0.507,-3.708 -0.507,-5.728 l -9.952,1.518 -1.166,-10.276 -0.338,0 -13.149,1.684 -0.677,0.164 c -2.351,-7.915 -6.059,-15.669 -11.287,-23.584 -1.504,-1.862 -2.858,-3.885 -4.535,-5.569 -5.736,-6.405 -12.66,-11.287 -20.239,-15.494 -1.338,-0.68 -2.692,-1.527 -4.196,-2.198 -9.275,-4.549 -19.396,-8.095 -29.159,-11.625 -3.893,-1.524 -7.937,-3.034 -11.625,-4.549 -2.37,-0.846 -6.416,-3.033 -8.09,-4.718 -2.37,-2.533 -4.382,-5.567 -6.921,-7.59 -5.043,-4.035 -9.086,-7.074 -13.809,-11.45 -2.032,-1.69 -3.874,-3.547 -5.736,-5.57 -4.385,-4.72 -8.259,-9.766 -12.475,-14.658 l 2.034,8.927 c 0.677,2.698 2.52,3.372 2.351,6.239 -0.169,1.854 -2.351,3.2 -3.028,4.887 2.859,7.59 3.536,14.659 -5.889,3.369 -5.228,-7.243 -3.555,-16.343 -6.247,-26.281 -0.846,-4.224 -1.182,-7.418 -2.689,-11.467 -1.523,-3.869 -4.043,-7.576 -6.413,-11.123 -0.508,-0.497 -0.847,-1.01 -1.188,-1.682 -2.52,-3.71 -6.902,-10.454 -9.425,-14.492 0,-0.166 -0.169,-0.166 -0.169,-0.333 0,0.333 0.169,0.5 0.169,0.839 0.85,3.871 0.678,10.276 0,13.823 l 0,0.163 c -2.369,5.395 -5.378,10.949 0,19.377 0.342,0.338 0.511,0.846 0.85,1.185 l -0.85,0.835 -3.535,3.208 -4.721,-9.613 c -7.243,-18.191 -3.369,-29.817 -1.354,-41.617 1.862,-11.286 -4.046,-13.987 -7.582,-22.587 -1.523,-3.696 -2.522,-11.45 -3.2,-15.33 -1.523,-9.102 -2.52,-11.453 -3.874,-20.728 l -3.366,4.893 c -3.197,4.043 0.338,8.079 0.338,12.799 -0.677,1.346 -2.031,2.362 -3.369,3.547 -1.013,1.007 -1.859,2.023 -2.2,3.194 -0.508,3.208 0.341,4.557 0.677,7.754 -2.201,5.897 -5.059,9.943 -8.933,12.471 -2.692,-23.083 -2.354,-23.083 9.61,-43.473 0.341,-0.677 0.68,-1.185 0.846,-1.687 2.015,-3.208 3.877,-5.728 4.893,-9.613 1.166,-4.707 -0.527,-9.763 -0.677,-14.659 l -3.705,7.252 c -0.188,0.164 -0.339,0.338 -0.511,0.502 -1.692,2.198 -3.724,4.218 -5.736,6.408 l 3.536,-20.228 2.2,-5.384 3.539,-7.926 c 2.858,-6.91 1.354,-12.802 -3.367,-18.03 0,0.508 0,1.01 -0.172,1.518 -0.166,5.558 -0.166,9.602 -2.2,13.987 -1.674,-6.905 -5.059,-10.79 -12.96,-8.429 3.197,9.264 3.535,23.764 2.012,40.954 -6.056,29.822 -9.952,51.06 -7.921,72.288 2.523,27.466 9.258,46.342 21.069,62.516 7.074,9.441 15.672,17.867 26.451,26.633 l -10.271,-19.382 -8.09,-20.725 c -3.385,-7.753 -3.724,-16.681 -4.89,-25.109 -0.846,-17.867 6.394,-26.961 0,-47.184 10.441,9.771 6.075,18.538 5.381,29.828 -0.341,6.23 -1.337,12.635 -0.66,18.868 1.354,9.777 3.538,19.712 6.904,28.992 3.536,10.277 8.936,21.564 15.838,31.002 3.2,4.548 6.567,8.592 10.293,11.964 0.151,0 0.151,0 0.32,0 7.92,2.361 15.01,4.382 21.746,5.894 -3.538,-3.372 -7.262,-6.732 -10.29,-10.443 -9.594,-11.797 -8.409,-20.053 -9.594,-34.207 -0.508,-4.548 -1.016,-8.766 -1.862,-12.976 -1.188,-4.718 -2.861,-9.264 -5.889,-13.821 2.35,2.698 4.215,4.557 5.889,6.919 2.708,4.032 4.382,9.263 5.228,22.398 2.351,22.415 8.936,30.841 23.589,43.654 1.185,0.164 2.354,0.497 3.539,0.671 6.244,1.349 12.64,2.362 19.714,3.536 -9.105,-5.22 -14.825,-9.769 -19.714,-19.546 -0.339,-0.846 -0.678,-1.518 -1.016,-2.356 0.338,0.5 0.677,1.013 1.016,1.51 8.766,11.128 16.345,15.172 28.481,22.076 6.075,1.185 11.964,2.534 17.7,4.044 10.271,2.7 20.054,6.233 29.159,11.625 1.504,0.852 2.858,1.69 4.196,2.7 5.229,3.372 10.121,7.59 14.672,12.647 2.182,2.686 4.044,5.892 5.567,9.091 3.35,7.416 5.551,15.68 7.394,22.587 l 9.105,-1.184 4.382,-0.503 3.219,11.126 5.548,-1.349 4.892,-1.01 c 0.847,5.892 3.197,12.799 7.071,18.194 1.846,2.695 4.047,4.893 6.567,6.741 2.369,-1.848 4.551,-4.046 6.416,-6.741 4.043,-5.395 6.224,-12.302 7.071,-18.194 l 4.873,1.01 5.57,1.349 3.197,-11.126 4.382,0.503 9.105,1.184 c 2.032,-6.907 4.044,-15.171 7.413,-22.587 1.523,-3.199 3.385,-6.405 5.567,-9.091 4.554,-5.057 9.444,-9.275 14.656,-12.647 1.354,-1.01 2.877,-1.848 4.212,-2.7 9.105,-5.392 18.869,-8.925 29.159,-11.625 5.717,-1.51 11.794,-2.859 17.703,-4.044 12.114,-6.904 19.712,-10.948 28.459,-22.076 0.339,-0.497 0.847,-1.01 1.188,-1.51 -0.341,0.838 -0.849,1.51 -1.188,2.356 -4.87,9.777 -10.609,14.326 -19.545,19.546 6.904,-1.174 13.32,-2.187 19.545,-3.536 1.188,-0.174 2.37,-0.507 3.708,-0.671 14.672,-12.813 21.069,-21.239 23.439,-43.654 0.846,-13.135 2.52,-18.366 5.381,-22.398 1.524,-2.362 3.367,-4.221 5.736,-6.919 -3.027,4.557 -4.72,9.103 -5.736,13.821 -1.018,4.21 -1.507,8.428 -1.845,12.976 -1.355,14.154 -0.17,22.41 -9.614,34.207 -3.197,3.711 -6.902,7.071 -10.437,10.443 6.733,-1.512 13.807,-3.533 21.896,-5.894 l 0.169,0 c 3.724,-3.372 7.091,-7.416 10.288,-11.964 6.905,-9.438 12.474,-20.725 15.821,-31.002 3.389,-9.28 5.57,-19.215 6.924,-28.992 0.847,-6.233 -0.338,-12.638 -0.677,-18.868 -0.677,-11.29 -5.062,-20.057 5.398,-29.828 -6.397,20.223 0.846,29.317 0,47.184 -1.016,8.428 -1.354,17.356 -4.89,25.109 l -8.09,20.725 -10.101,19.382 c 10.609,-8.766 19.376,-17.192 26.278,-26.633 11.966,-16.174 18.699,-35.05 21.069,-62.516 2.015,-21.228 -1.693,-42.466 -7.918,-72.288 -1.523,-17.19 -1.185,-31.69 2.182,-40.954 z m -451.782,174.071 0,0 c -2.69,-4.036 -4.721,-7.74 -6.567,-11.112 -14.164,-28.482 -0.335,-38.758 -1.013,-61.507 0.508,2.187 0.847,4.38 1.013,6.397 0.511,3.88 0.323,7.416 0,10.957 -0.846,10.276 -3.197,19.715 0,35.05 1.338,5.895 3.369,12.475 6.567,20.215 z m 34.709,20.73 0,0 c 1.185,3.88 3.197,8.09 6.074,12.81 -2.539,-3.197 -4.551,-6.066 -6.074,-8.592 -10.948,-17.194 -3.877,-22.076 -5.889,-44.663 5.569,15.008 0.508,24.949 5.889,40.445 z m 32.356,-3.702 0,0 c -0.339,-0.846 -0.489,-1.684 -0.678,-2.528 l -0.152,-3.538 0.83,1.01 2.708,3.036 c 6.058,19.878 15.161,18.369 28.482,32.181 -13.321,-9.43 -26.131,-13.812 -31.19,-30.161 z m 296.416,-2.528 0,0 c -0.169,0.844 -0.341,1.682 -0.68,2.528 -4.87,16.349 -17.85,20.731 -31.17,30.161 13.32,-13.812 22.592,-12.303 28.481,-32.181 l 2.689,-3.036 1.016,-1.01 -0.336,3.538 z m 31.848,10.448 0,0 c -1.676,2.526 -3.707,5.395 -6.227,8.592 2.858,-4.72 4.889,-8.93 6.227,-12.81 5.229,-15.496 0.169,-25.437 5.736,-40.445 -2.031,22.587 5.062,27.469 -5.736,44.663 z m 41.12,-36.06 0,0 c -1.693,3.372 -3.874,7.076 -6.413,11.112 3.216,-7.74 5.247,-14.32 6.413,-20.215 3.2,-15.335 0.849,-24.774 0,-35.05 -0.336,-3.541 -0.505,-7.077 0,-11.123 0.172,-1.851 0.51,-4.044 1.018,-6.231 -0.508,22.749 13.299,33.025 -1.018,61.507 z"
       id="path3749"
       style="fill:#f6c10b;stroke:#000000;stroke-width:0.21602701" />
    <path
       d="m 695.332,298.728 c -5.231,4.557 -6.058,20.567 6.566,23.426 13.318,1.518 15.011,-6.397 12.98,-11.626 -2.351,-5.558 -10.271,-8.253 -13.979,1.185 l -1.524,-2.198 c -1.015,-6.907 9.106,-10.276 14.487,-7.415 6.247,3.88 9.275,14.659 2.37,21.064 -3.536,3.033 -9.763,4.556 -17.364,3.033 -3.536,-1.174 -6.733,-3.869 -9.256,-7.92 -2.031,-3.206 -3.724,-7.077 -4.89,-11.795 -5.908,-22.074 -4.215,-55.614 4.89,-73.309 4.046,-7.74 9.428,-12.463 16.18,-11.625 0.827,-7.749 -8.767,-15.158 -16.18,-12.133 -2.539,1.01 -4.72,3.208 -6.244,7.076 -3.538,8.429 -2.861,15.672 -3.874,22.59 l -1.507,0 c 0,-25.448 2.52,-45.338 11.625,-61.845 1.338,-2.533 3.031,-5.059 4.704,-7.415 12.641,-17.697 36.741,-5.062 27.974,10.11 -5.212,7.582 -12.794,6.233 -17.006,1.685 l 0.996,-3.208 c 1.693,1.351 7.243,5.733 11.475,0.677 8.09,-10.449 -7.767,-16.682 -15.518,-10.779 -10.782,7.915 -9.106,26.625 6.582,28.809 15.841,3.036 26.789,-8.592 26.281,-25.107 -1.862,-22.917 -32.675,-28.312 -45.488,-15.336 -0.846,0.847 -1.693,1.857 -2.37,2.87 -11.286,17.694 -14.164,29.994 -16.684,62.006 -0.849,16.182 -1.185,31.354 0,47.025 0.846,13.648 2.708,27.461 6.075,42.627 l 0.169,0 c 2.182,10.115 6.566,18.03 12.81,22.925 5.889,4.71 13.81,6.567 23.084,4.544 39.43,-14.831 9.594,-63.366 -17.364,-39.941 z"
       id="path3751"
       style="fill:#f6c10b;stroke:#000000;stroke-width:0.21602701" />
    <path
       d="m 438.345,654.969 c 0,0 -0.169,0 -0.338,0 -0.17,0 -0.17,0 -0.339,0 -2.351,0 -4.382,1.016 -6.228,2.526 -4.043,3.372 -6.732,9.777 -6.732,17.195 0,7.415 2.689,13.82 6.732,17.178 1.846,1.69 3.877,2.537 6.228,2.537 0.169,0 0.169,0 0.339,0 0.169,0 0.338,0 0.338,0 2.201,0 4.213,-0.847 6.078,-2.537 4.043,-3.358 6.732,-9.763 6.732,-17.178 0,-7.418 -2.689,-13.823 -6.732,-17.195 -1.865,-1.51 -3.877,-2.526 -6.078,-2.526 z m -0.338,28.821 0,0 c -3.367,0 -5.551,-4.219 -5.551,-9.1 0,-5.057 2.184,-9.106 5.551,-9.106 3.366,0 5.397,4.049 5.397,9.106 0,4.881 -2.031,9.1 -5.397,9.1 z"
       id="path3753"
       style="fill:#f6c10b;stroke:#000000;stroke-width:0.21602701" />
    <path
       d="m 456.725,144.034 c -0.169,0 -0.169,-0.174 -0.358,-0.174 -4.873,-3.023 -9.086,-7.915 -11.944,-13.308 -0.435,-1.012 -0.847,-1.919 -1.185,-2.902 l 0.093,-6.047 c 0.338,0.972 0.734,1.908 1.092,2.716 2.858,5.559 7.243,10.113 11.944,13.485 1.862,1.349 3.724,2.525 5.57,3.372 2.708,-1.524 5.398,-3.372 7.579,-5.395 2.031,-1.682 3.896,-3.547 5.4,-5.57 -1.695,0 -3.199,0 -4.723,-0.164 -0.169,0 -0.338,0 -0.677,0 -3.536,-0.671 -8.09,-2.189 -11.625,-4.551 -0.489,-0.505 -0.997,-0.838 -1.524,-1.351 -4.701,-5.046 -7.732,-12.8 -5.212,-19.54 1.016,-2.362 2.692,-4.546 5.212,-6.2363 1.862,-1.1794 3.894,-2.023 6.416,-2.6947 -2.184,-0.6716 -4.384,-1.3487 -6.416,-2.0231 -4.024,-1.1849 -7.901,-1.8565 -11.944,-2.3588 -1.696,-0.1748 -3.539,-0.1748 -5.401,-0.1748 -0.169,0 -0.338,0 -0.338,0 -0.17,0 -0.17,0 -0.339,0 0,0 -0.169,0 -0.338,0 -0.17,0 -0.17,0 -0.339,0 -0.169,0 -0.339,0 -0.339,0 -0.15,0 -0.319,0 -0.488,0 -1.862,0 -3.555,0 -5.401,0.1748 -3.874,0.5023 -7.917,1.1739 -11.963,2.3588 -2.032,0.6744 -4.213,1.3515 -6.395,2.0231 2.52,0.6717 4.702,1.5153 6.395,2.6947 2.522,1.6903 4.215,3.8743 5.231,6.2363 2.52,6.74 -0.339,14.494 -5.231,19.54 -0.508,0.513 -0.847,0.846 -1.355,1.351 -3.704,2.362 -8.239,3.88 -11.794,4.551 -0.169,0 -0.489,0 -0.677,0 -1.505,0.164 -3.028,0.164 -4.721,0.164 1.524,2.023 3.386,3.888 5.398,5.57 2.37,2.023 4.89,3.871 7.601,5.395 1.843,-0.847 3.686,-2.023 5.548,-3.372 4.723,-3.372 9.105,-7.926 11.963,-13.485 0.68,-1.176 1.188,-2.525 1.527,-4.043 l 0,7.415 0.843,3.776 c -0.45,-1.264 -0.808,-2.697 -1.013,-4.286 -0.341,1.182 -0.846,2.195 -1.357,3.371 -2.858,5.393 -7.071,10.285 -11.963,13.308 -0.17,0 -0.17,0.174 -0.339,0.174 0.169,0 0.169,0.175 0.339,0.175 4.046,1.848 8.089,3.364 11.963,4.374 2.185,0.671 4.554,1.185 6.567,1.684 2.031,-0.499 4.215,-1.013 6.416,-1.684 4.043,-1.01 8.086,-2.526 11.944,-4.374 0.189,0 0.189,-0.175 0.358,-0.175 z m -25.285,-39.601 0,0 c -3.197,-2.015 -2.858,-5.5619 0,-7.7461 1.527,-1.1876 3.708,-2.1978 6.567,-2.1978 2.689,0 4.892,1.0102 6.416,2.1978 2.858,2.1842 3.197,5.7311 0,7.7461 -1.355,1.018 -3.539,1.518 -6.416,1.681 -3.028,-0.163 -5.21,-0.663 -6.567,-1.681 z"
       id="path3755"
       style="fill:#f6c10b;stroke:#000000;stroke-width:0.21602701" />
    <path
       d="m 453.643,24.3244 c -1.572,-0.1955 -3.003,-0.4357 -4.594,-0.6302 -3.807,9.3446 -5.912,18.6837 -6.899,27.6459 -1.115,12.5859 -0.102,24.5867 1.56,34.7309 1.74,0.1707 3.666,0.3101 5.438,0.6469 2.123,0.2646 4.084,0.567 5.856,0.901 1.164,-7.1045 3.395,-15.7895 6.26,-24.7698 3.665,-11.0336 8.609,-22.4903 14.344,-31.696 0.4,-0.5994 0.799,-1.1961 1.365,-1.823 -0.728,-0.1953 -1.292,-0.4289 -1.824,-0.5018 -7.094,-2.0226 -14.258,-3.5304 -21.506,-4.5039 z"
       id="path3757"
       style="fill:#f6c10b;stroke:#000000;stroke-width:0.21602701" />
    <path
       d="m 550.857,204.206 2.709,0 4.193,-3.034 10.29,-5.395 6.059,-3.197 2.031,-2.023 -0.508,-0.671 -0.846,-0.839 -1.843,-1.862 -1.526,-0.163 -1.843,1.515 -21.069,11.123 -2.878,1.851 -0.319,0.846 1.843,0.838 3.707,1.011 z"
       id="path3759"
       style="fill:#f6c10b;stroke:#000000;stroke-width:0.21602701" />
    <path
       d="m 330.354,203.665 3.536,-1.01 1.865,-0.838 -0.339,-0.847 -2.88,-1.851 -21.05,-11.123 -2.539,-1.351 c -2.182,1.185 -3.367,2.023 -3.875,4.384 6.244,2.859 18.888,8.926 25.282,12.636 z"
       id="path3761"
       style="fill:#f6c10b;stroke:#000000;stroke-width:0.21602701" />
  </g>
  <g
     transform="translate(0,-9.0039062e-4)"
     id="g3781" />
</svg>
